<svg width="178" height="69" viewBox="0 0 178 69" fill="none" xmlns="http://www.w3.org/2000/svg">
<path d="M43.6672 12.1743C45.1349 11.7018 47.5523 10.5205 48.1567 8.00052C48.8474 5.00802 47.2933 2.96053 43.3218 2.33053C38.9186 1.62178 29.9395 3.03928 21.4784 6.66177C14.2261 9.81176 6.62838 14.6155 5.24698 20.0492C3.95191 25.483 6.88739 29.7355 15.4348 36.9805C17.9386 39.1067 20.097 40.9967 21.9101 42.7292C31.3209 39.2642 49.3654 34.618 51.4375 34.2242C53.6823 33.7517 54.114 34.6967 51.7829 35.0905C49.7971 35.4842 32.7023 39.9729 23.0325 43.7529C29.6805 50.1317 31.9253 54.2267 31.0619 59.2667C30.0258 65.5666 21.4784 69.1104 12.5857 68.3229C4.03825 67.6141 0.0667274 63.0466 0.843765 58.8729C1.96615 53.3604 9.73653 48.3204 18.1976 44.3042C18.7156 43.9892 19.4927 43.7529 20.1834 43.4379C18.5429 41.8629 16.4708 40.0517 14.2261 38.0042C4.72895 29.8142 1.44813 25.5617 2.82953 19.7342C4.21093 13.9068 9.47751 9.49677 20.4424 5.08678C31.4936 0.598037 39.0049 0.125535 43.6672 0.834284C48.7611 1.62178 50.6605 4.69303 49.7971 8.39427C48.9337 11.7018 45.2212 13.3555 44.1852 13.4343C43.1491 13.5918 42.6311 12.568 43.6672 12.1743ZM29.0761 58.8729C29.7668 54.9354 28.2127 51.3129 21.3057 44.4617C20.5287 44.7767 19.9243 45.0917 19.32 45.4067C8.70047 50.6829 3.52023 54.6204 2.65685 58.8729C1.96615 62.4954 5.59233 66.0391 12.672 66.5116C21.3057 66.9841 28.2127 63.2829 29.0761 58.8729Z" fill="#111111"/>
<path d="M39.8738 46.4876C39.9089 46.4876 39.9089 46.4536 39.9089 46.4536C39.8738 46.3857 39.8738 46.4536 39.8738 46.4876C39.7331 46.5894 39.4518 46.6573 39.487 46.793C39.3463 46.9627 39.1353 46.9627 38.9243 47.0985C37.4826 47.981 35.6541 50.8999 33.6145 50.1192C33.5442 49.8817 33.4035 49.712 33.3332 49.5083C33.3332 49.3386 33.1926 49.5762 33.1926 49.4404C33.0871 49.2707 33.0167 49.101 32.9112 48.9313C33.4035 46.5554 34.7398 44.9942 36.0409 43.3311C36.5332 42.9577 37.131 42.5165 37.9397 42.5165C38.7133 42.6862 39.6276 42.9238 39.7683 43.8402C39.8386 44.3493 39.6276 44.6887 39.4166 45.0281C39.6979 45.0281 40.0144 44.7566 40.4716 44.8245C41.1045 45.062 41.21 46.3179 40.7529 46.7591C41.0694 47.2682 40.4364 48.0149 40.6825 48.5919C44.199 48.0488 46.1682 45.639 48.3132 43.6365C48.067 45.4354 46.1682 46.3518 44.9374 47.5737C44.1286 48.0149 43.5309 48.4222 42.6517 48.7955C42.7221 48.8974 42.8627 48.6937 43.0034 48.7277C42.9682 48.8295 42.8276 48.7955 42.8276 48.8974C44.2693 48.4222 45.1836 47.2682 46.4143 46.7251C46.3792 46.6233 46.2737 46.7591 46.2033 46.7251C46.2737 46.6233 46.3792 46.4197 46.4495 46.6573C46.555 46.4197 46.9418 46.0124 47.4341 45.9106C45.922 47.6755 43.988 48.8634 41.6671 49.9156C41.3507 49.9495 41.1045 49.8477 40.788 49.8477C40.2606 49.678 40.0848 49.4065 39.8386 48.9653C39.8034 48.2864 39.7683 47.2343 39.8738 46.4876ZM34.2826 48.8295C36.076 47.981 37.2013 46.5554 38.643 45.3675C38.3617 45.1299 38.5375 44.3153 38.4672 44.0099C36.1464 44.7226 35.3024 46.8609 34.2826 48.8295ZM47.8912 44.4172C47.9967 44.2475 47.9264 44.5529 47.8912 44.4172ZM47.6802 44.6547C47.7506 44.7226 47.8209 44.6208 47.8561 44.519C47.7506 44.5529 47.6451 44.5529 47.6802 44.6547ZM43.4254 47.8791C43.3902 47.8113 43.3199 47.8113 43.3199 47.8791C43.2144 47.8452 43.1792 47.9131 43.144 47.981C43.2495 47.981 43.2847 47.9131 43.3199 47.8791H43.4254C43.355 48.0149 43.1792 48.0488 43.0386 48.1167C43.0386 48.0488 43.2144 47.981 43.0386 47.981C42.9682 48.1167 42.8979 48.3204 42.6869 48.1507C42.6517 48.2525 42.5463 48.4222 42.6869 48.4222C44.5858 47.4718 46.4143 46.216 47.6451 44.6887C46.2737 45.8087 45.0078 46.9967 43.4254 47.8791ZM39.276 45.5712C39.5221 45.639 39.1353 45.7748 39.276 45.5712ZM38.9947 45.8427C39.0298 45.9106 39.276 45.7748 39.1353 45.7069C39.1353 45.8087 38.9595 45.7069 38.9947 45.8427ZM38.7837 46.0463C38.6782 46.0124 38.6079 46.1821 38.6782 46.1821C38.6782 46.1142 38.7837 46.1482 38.7837 46.0463C38.8188 46.0463 38.8188 46.0803 38.854 46.0803C38.8892 46.0463 38.8892 46.0124 38.8892 45.9445C38.8188 45.9445 38.7837 45.9784 38.7837 46.0463ZM38.9947 46.1482C38.9947 46.1821 38.9595 46.1482 38.9947 46.1482ZM37.9749 46.6912C38.1156 46.5894 37.8694 46.827 37.9749 46.6912ZM39.276 46.793C39.487 46.8609 39.3111 46.6912 39.276 46.793ZM39.1002 46.9288C39.276 46.9627 39.1002 46.793 39.1002 46.9288ZM42.8627 48.1507C42.8979 48.1846 42.8276 48.1507 42.8627 48.1507ZM34.0365 48.2185C34.2123 48.2864 34.0365 48.1167 34.0365 48.2185ZM34.0013 48.4222C33.931 48.524 33.7552 48.7277 33.8255 48.7955C33.8958 48.6937 34.0013 48.6258 34.0013 48.4222C34.0717 48.4222 34.0013 48.3883 34.0013 48.4222ZM42.3704 48.9653C42.4408 48.9313 42.5814 48.9313 42.6166 48.8295C42.4759 48.8295 42.3353 48.8295 42.3704 48.9653ZM33.7903 48.9313C33.931 48.8295 33.6849 49.0671 33.7903 48.9313ZM42.4408 49.101C42.5814 49.0331 42.7572 49.0331 42.7924 48.8974C42.6517 48.9313 42.5111 48.9653 42.4408 49.101ZM33.7903 49.101C33.8607 48.9653 33.6145 48.9653 33.6145 49.0331C33.6849 49.0331 33.72 49.101 33.7903 49.101ZM47.7154 45.3675C47.8209 45.4354 47.6802 45.5712 47.5747 45.5372C47.6099 45.4693 47.7154 45.4693 47.7154 45.3675ZM47.6451 45.673C47.6802 45.8087 47.3989 45.8766 47.4341 45.7069C47.5044 45.7409 47.5044 45.639 47.6451 45.673ZM47.2231 45.7409C47.2583 45.9106 47.2583 45.6051 47.2231 45.7409ZM43.2847 48.5919C43.2847 48.6937 43.144 48.6598 43.144 48.7277C43.0386 48.6937 43.2144 48.5919 43.2847 48.5919ZM63.6184 44.8584C63.6184 44.9602 63.513 44.9602 63.513 45.0281C63.5481 45.0281 63.5833 45.062 63.6184 45.062C63.7943 44.8584 63.9701 44.7905 64.3569 44.6887C64.1107 45.3675 63.6536 46.0124 63.1965 46.4536C62.0009 47.2682 60.7701 48.558 59.1526 48.9653C57.4647 49.2707 56.7262 48.0488 56.4098 46.5215C54.6164 47.7434 53.456 49.5083 51.1703 50.255C49.4472 50.3229 49.1308 48.1846 49.4472 46.7251C49.9044 45.4354 50.3967 43.908 50.8186 42.6522C50.9945 42.5504 51.1 42.3807 51.2758 42.2449C51.5571 42.4486 51.8384 42.6183 52.0142 42.8559C51.7329 45.2996 50.5373 46.6912 50.2912 48.8295C50.2912 48.9313 50.467 48.8634 50.5022 48.9313C52.7878 47.981 54.5812 46.0124 56.4098 44.6208C56.5504 44.5869 56.3746 44.519 56.4098 44.4511C56.9021 44.6547 57.1482 45.062 57.6757 45.4014C57.535 46.0124 57.535 46.6573 57.5702 47.4718C59.2932 48.0149 60.5943 46.25 61.9306 45.639C62.1415 45.3675 62.4932 45.2317 62.669 44.8923C62.7745 44.8584 62.7745 44.9602 62.88 44.9602C63.091 44.519 63.7239 44.1796 64.1459 43.8062C63.8998 43.7723 63.8998 43.9759 63.6888 43.9759C63.8646 43.6026 64.2162 43.4329 64.4624 43.1613C64.603 43.2632 64.3921 43.4668 64.3569 43.5686C64.3921 43.6705 64.4624 43.5008 64.5679 43.5686C64.4624 43.8402 64.5327 44.0438 64.2514 44.0778C64.2162 44.2135 64.3921 44.1117 64.3569 44.2475C64.2514 44.2814 64.2162 44.3153 64.1811 44.4172C64.0756 44.4172 64.0756 44.3153 64.1459 44.2475C63.9701 44.3153 63.8294 44.4172 63.7591 44.5869C63.8998 44.6887 63.9701 44.485 64.1107 44.485C64.1107 44.6887 63.8646 44.6208 63.8294 44.7905C63.7239 44.8245 63.7591 44.6887 63.7239 44.6547C63.6536 44.6887 63.5833 44.7566 63.5481 44.8245C63.5481 44.8584 63.5833 44.8584 63.6184 44.8584ZM64.2162 43.7723H64.3217V43.6705H64.2162V43.7723ZM63.3723 44.9942C63.4778 45.0281 63.5833 44.8923 63.4778 44.8584C63.4426 44.9263 63.3371 44.8923 63.3723 44.9942ZM63.1965 45.096H63.3371V44.9942H63.1965V45.096ZM63.4778 45.2657C63.513 45.1978 63.513 45.096 63.3723 45.096C63.3723 45.1978 63.3723 45.2657 63.4778 45.2657ZM62.9152 45.4014C63.1261 45.4014 63.0206 45.1978 62.9152 45.1978V45.4014ZM62.9503 45.5033C63.1613 45.5033 63.1613 45.2996 63.3371 45.4693C63.4075 45.4014 63.3371 45.2317 63.2668 45.1978C63.1613 45.3336 63.0207 45.3675 62.9503 45.5033ZM62.669 45.7748C62.7042 45.639 62.88 45.639 62.9152 45.5033C62.7745 45.5372 62.5635 45.673 62.669 45.7748ZM55.7065 45.8427C55.7065 45.7748 55.7416 45.7409 55.7416 45.673C55.5658 45.7069 55.5307 45.8427 55.4603 45.9784C55.0735 45.9445 54.757 46.3518 54.4406 46.4876C54.4757 46.6233 54.4757 46.6912 54.4054 46.793C54.5109 46.8949 54.5109 46.6573 54.6516 46.6912C54.6516 46.793 54.4054 46.8609 54.5109 46.9288C54.6516 46.827 54.7922 46.7251 54.968 46.6573C54.8625 46.4197 55.1087 46.25 55.179 46.0803C55.2845 46.1821 55.39 46.0463 55.4603 45.9784C55.601 45.9784 55.5307 45.8087 55.7065 45.8427C55.7065 45.9784 55.7065 46.1142 55.5658 46.0803C55.5658 46.0463 55.601 46.0463 55.601 46.0124C55.4252 46.0463 55.4252 46.2839 55.2493 46.3179C55.3197 46.3518 55.39 46.3857 55.4955 46.4197C55.5658 46.3179 55.4252 46.1821 55.5658 46.1142C55.812 46.25 55.9175 45.7748 56.1636 45.9106C56.1636 45.8427 56.1988 45.8427 56.1988 45.8087C56.023 45.8087 56.3043 45.673 56.1285 45.6051C56.0933 45.7409 55.9878 45.8087 55.812 45.7069C55.8471 45.8087 55.7768 45.8427 55.7065 45.8427ZM56.3746 45.7748C56.3746 45.673 56.3043 45.639 56.2339 45.6051C56.2339 45.7069 56.2691 45.7748 56.3746 45.7748ZM62.4932 45.7069C62.5284 45.7409 62.458 45.7069 62.4932 45.7069ZM55.3548 45.8087C55.39 45.8427 55.3548 45.7748 55.3548 45.8087ZM62.5284 45.8087C62.5987 45.9784 62.5987 45.639 62.5284 45.8087ZM61.7899 46.0803C61.7547 46.1821 61.8602 46.1821 61.8602 46.25C62.0361 46.1821 62.2119 46.1482 62.247 45.9106C61.9657 45.8766 61.9657 46.1821 61.7899 46.0803ZM61.8602 46.3857C62.0009 46.4876 61.9306 46.216 61.8602 46.3857ZM55.0735 46.4197C55.2142 46.3179 54.968 46.5554 55.0735 46.4197ZM55.0384 46.5894C55.1439 46.6912 55.1087 46.4197 55.0384 46.5894ZM54.1241 47.2682C54.0889 47.0646 54.2647 46.8949 54.3351 47.0646C54.6164 46.6573 53.7021 47.0985 54.1241 47.2682ZM53.3505 47.7434C53.456 47.6416 53.5263 47.5058 53.7724 47.5058C53.7021 47.3361 53.9131 47.37 53.8779 47.2343C53.667 47.3361 53.3153 47.5397 53.3505 47.7434ZM52.9988 47.8791V47.947H53.0692C53.0692 47.947 53.1043 47.9131 53.1395 47.9131V47.8452H53.034C53.034 47.8452 53.034 47.8791 52.9988 47.8791ZM62.7393 44.8245C62.7745 44.8584 62.7393 44.7905 62.7393 44.8245ZM63.6184 44.8584C63.6888 44.8245 63.6184 44.8245 63.6184 44.8584ZM54.8274 46.5215C54.968 46.4197 54.7219 46.6573 54.8274 46.5215ZM75.2314 42.5504C75.0908 42.4486 74.915 42.3468 74.7391 42.2789C73.6139 42.7201 72.8403 43.6705 71.8557 44.0438C71.7853 44.3493 71.6447 44.5869 71.3634 44.6547C70.3084 46.0803 69.2535 47.4718 68.4096 49.0671C68.3041 49.8477 67.9173 50.3229 67.2492 50.5605C65.4909 49.7798 66.5107 47.0985 66.6865 45.5712C67.0382 44.7905 67.0733 43.6026 67.4601 42.9916C69.0074 43.331 68.3744 44.9263 68.1986 46.0124C69.0074 44.8245 70.0271 43.8402 71.0469 42.8219C71.9963 42.0413 74.3875 40.9552 75.2314 42.5504ZM72.6293 42.3128C72.8754 42.3468 72.8754 42.1431 73.0513 42.211C72.9458 41.9734 73.3326 42.1771 73.3677 41.9395C73.1216 42.0074 72.9106 42.0413 72.8051 42.0074C70.8711 43.0935 69.3238 44.8584 68.2689 46.7591C69.4997 45.062 70.8359 43.4668 72.6293 42.3128ZM73.4732 41.9734C73.5084 42.0074 73.4381 41.9734 73.4732 41.9734ZM73.6491 42.2789C73.6491 42.3468 73.6139 42.3807 73.5787 42.4146C73.7194 42.3807 73.8952 42.3807 73.9304 42.211C73.8249 42.2449 73.7545 42.2789 73.6491 42.2789ZM73.2974 42.5843C73.4381 42.5843 73.4732 42.4825 73.5436 42.4146C73.4029 42.3468 73.1919 42.4146 73.2974 42.5843ZM72.3128 43.0935C72.6293 43.0595 72.8403 42.6862 73.1216 42.6862C73.0864 42.5843 73.2622 42.4486 73.0864 42.4825C72.8754 42.7201 72.5238 42.8559 72.3128 43.0935ZM72.8051 42.9577C72.9458 42.8559 72.6996 43.0935 72.8051 42.9577ZM72.0315 43.365C72.137 43.2971 72.2776 43.2632 72.3128 43.1274C72.2073 43.1953 71.926 43.2292 72.0315 43.365ZM71.5744 43.942C71.6447 43.8062 71.8557 43.7723 71.8557 43.5686H71.7502C71.7853 43.7723 71.4337 43.8062 71.5744 43.942ZM71.2227 44.2135C71.2227 44.2135 71.2227 44.1796 71.2579 44.1796C71.2579 44.1456 71.2579 44.0778 71.1876 44.1117C71.1876 44.1456 71.1876 44.2135 71.2227 44.2135ZM72.6293 42.3128C72.5941 42.3128 72.559 42.2789 72.6293 42.2789V42.3128ZM71.3985 43.0256C71.4337 43.0595 71.3634 43.0256 71.3985 43.0256ZM66.4755 43.942C66.6514 43.9759 66.4755 43.8062 66.4755 43.942ZM82.906 46.4876C82.9412 46.4876 82.9412 46.4536 82.9412 46.4536C82.906 46.3857 82.906 46.4536 82.906 46.4876C82.7654 46.5894 82.4841 46.6573 82.5192 46.793C82.3786 46.9627 82.1676 46.9627 81.9566 47.0985C80.5149 47.981 78.6863 50.8999 76.6468 50.1192C76.5765 49.8817 76.4358 49.712 76.3655 49.5083C76.3655 49.3386 76.2248 49.5762 76.2248 49.4404C76.1193 49.2707 76.049 49.101 75.9435 48.9313C76.4358 46.5554 77.7721 44.9942 79.0731 43.3311C79.5654 42.9577 80.1632 42.5165 80.972 42.5165C81.7456 42.6862 82.6599 42.9238 82.8006 43.8402C82.8709 44.3493 82.6599 44.6887 82.4489 45.0281C82.7302 45.0281 83.0467 44.7566 83.5038 44.8245C84.1368 45.062 84.2423 46.3179 83.7852 46.7591C84.1016 47.2682 83.4687 48.0149 83.7148 48.5919C87.2313 48.0488 89.2005 45.639 91.3455 43.6365C91.0993 45.4354 89.2005 46.3518 87.9697 47.5737C87.1609 48.0149 86.5631 48.4222 85.684 48.7955C85.7544 48.8974 85.895 48.6937 86.0357 48.7277C86.0005 48.8295 85.8598 48.7955 85.8598 48.8974C87.3016 48.4222 88.2159 47.2682 89.4466 46.7251C89.4114 46.6233 89.3059 46.7591 89.2356 46.7251C89.3059 46.6233 89.4114 46.4197 89.4818 46.6573C89.5873 46.4197 89.9741 46.0124 90.4664 45.9106C88.9543 47.6755 87.0203 48.8634 84.6994 49.9156C84.3829 49.9495 84.1368 49.8477 83.8203 49.8477C83.2929 49.678 83.117 49.4065 82.8709 48.9653C82.8357 48.2864 82.8006 47.2343 82.906 46.4876ZM77.3149 48.8295C79.1083 47.981 80.2336 46.5554 81.6753 45.3675C81.394 45.1299 81.5698 44.3153 81.4995 44.0099C79.1786 44.7226 78.3347 46.8609 77.3149 48.8295ZM90.9235 44.4172C91.029 44.2475 90.9587 44.5529 90.9235 44.4172ZM90.7125 44.6547C90.7828 44.7226 90.8532 44.6208 90.8883 44.519C90.7828 44.5529 90.6774 44.5529 90.7125 44.6547ZM86.4576 47.8791C86.4225 47.8113 86.3522 47.8113 86.3522 47.8791C86.2467 47.8452 86.2115 47.9131 86.1763 47.981C86.2818 47.981 86.317 47.9131 86.3522 47.8791H86.4576C86.3873 48.0149 86.2115 48.0488 86.0708 48.1167C86.0708 48.0488 86.2467 47.981 86.0708 47.981C86.0005 48.1167 85.9302 48.3204 85.7192 48.1507C85.684 48.2525 85.5785 48.4222 85.7192 48.4222C87.6181 47.4718 89.4466 46.216 90.6774 44.6887C89.3059 45.8087 88.04 46.9967 86.4576 47.8791ZM82.3083 45.5712C82.5544 45.639 82.1676 45.7748 82.3083 45.5712ZM82.0269 45.8427C82.0621 45.9106 82.3083 45.7748 82.1676 45.7069C82.1676 45.8087 81.9918 45.7069 82.0269 45.8427ZM81.816 46.0463C81.7105 46.0124 81.6401 46.1821 81.7105 46.1821C81.7105 46.1142 81.816 46.1482 81.816 46.0463C81.8511 46.0463 81.8511 46.0803 81.8863 46.0803C81.9215 46.0463 81.9215 46.0124 81.9215 45.9445C81.8511 45.9445 81.816 45.9784 81.816 46.0463ZM82.0269 46.1482C82.0269 46.1821 81.9918 46.1482 82.0269 46.1482ZM81.0072 46.6912C81.1478 46.5894 80.9017 46.827 81.0072 46.6912ZM82.3083 46.793C82.5192 46.8609 82.3434 46.6912 82.3083 46.793ZM82.1324 46.9288C82.3083 46.9627 82.1324 46.793 82.1324 46.9288ZM85.895 48.1507C85.9302 48.1846 85.8598 48.1507 85.895 48.1507ZM77.0688 48.2185C77.2446 48.2864 77.0688 48.1167 77.0688 48.2185ZM77.0336 48.4222C76.9633 48.524 76.7875 48.7277 76.8578 48.7955C76.9281 48.6937 77.0336 48.6258 77.0336 48.4222C77.1039 48.4222 77.0336 48.3883 77.0336 48.4222ZM85.4027 48.9653C85.473 48.9313 85.6137 48.9313 85.6489 48.8295C85.5082 48.8295 85.3675 48.8295 85.4027 48.9653ZM76.8226 48.9313C76.9633 48.8295 76.7171 49.0671 76.8226 48.9313ZM85.473 49.101C85.6137 49.0331 85.7895 49.0331 85.8247 48.8974C85.684 48.9313 85.5434 48.9653 85.473 49.101ZM76.8226 49.101C76.893 48.9653 76.6468 48.9653 76.6468 49.0331C76.7171 49.0331 76.7523 49.101 76.8226 49.101ZM90.7477 45.3675C90.8532 45.4354 90.7125 45.5712 90.607 45.5372C90.6422 45.4693 90.7477 45.4693 90.7477 45.3675ZM90.6774 45.673C90.7125 45.8087 90.4312 45.8766 90.4664 45.7069C90.5367 45.7409 90.5367 45.639 90.6774 45.673ZM90.2554 45.7409C90.2905 45.9106 90.2905 45.6051 90.2554 45.7409ZM86.317 48.5919C86.317 48.6937 86.1763 48.6598 86.1763 48.7277C86.0708 48.6937 86.2467 48.5919 86.317 48.5919ZM100.321 42.2449C99.653 42.8219 99.6179 44.0099 99.0201 44.3832C98.7388 45.0281 98.6333 45.8087 98.141 46.1482C97.7542 47.8452 96.5234 49.3047 96.0311 50.8999C95.4333 51.5448 94.6597 52.563 93.5345 52.0878C93.007 51.5448 92.4795 50.7641 92.7608 49.678C92.796 49.5422 92.7608 49.4065 92.7257 49.3047C92.9015 48.4901 93.0773 47.6076 93.1125 46.7591C93.4993 45.4015 93.4641 43.8062 93.6751 42.5165C94.3432 42.5165 94.6245 43.0256 94.8355 43.3311C94.5542 43.942 94.73 44.8923 94.8004 45.7409C94.4839 46.8949 94.4487 48.4901 94.2377 49.9156C95.8905 47.7434 96.6992 44.7566 98.3871 42.5843C98.6333 41.6001 99.3717 40.7176 100.145 40.0048C100.602 39.9709 100.884 40.1406 101.165 40.2764C101.165 41.2267 100.602 41.5661 100.321 42.2449ZM100.427 40.514C100.567 40.4121 100.321 40.6497 100.427 40.514ZM100.567 40.5479C100.638 40.5479 100.743 40.5818 100.708 40.48H100.638C100.638 40.5139 100.602 40.5479 100.567 40.5479ZM99.6179 40.6837H99.6882V40.6158H99.6179V40.6837ZM98.6684 43.8062C98.5629 43.8062 98.2816 43.7044 98.3168 43.908C98.4223 43.9759 98.5278 43.8062 98.5629 43.908C98.0003 44.1796 97.5783 45.062 97.508 45.5712C97.5783 45.5372 97.5783 45.4354 97.719 45.4014C97.7893 45.6051 97.4729 45.7069 97.6838 45.7409C98.0003 45.096 98.352 44.485 98.6684 43.8062C98.9497 43.6026 98.9497 43.1274 99.2662 42.9577C99.2311 42.9916 99.1607 43.1613 99.3014 43.1274C99.1607 42.6862 99.5827 42.4486 99.6882 42.0413C99.653 42.0074 99.5827 42.0074 99.5827 41.9395C99.6179 41.9055 99.5827 41.7358 99.7234 41.7358C99.7234 41.8037 99.7234 41.9055 99.7937 41.9055C99.8289 41.8376 99.9695 41.8037 99.9344 41.634H100.005C100.075 41.5322 100.181 41.4643 100.216 41.3285C100.145 41.3285 100.04 41.3625 100.04 41.2946C100.04 41.2267 100.075 41.1588 100.11 41.1249C100.181 41.1588 100.145 41.2946 100.286 41.2607C100.321 41.0909 100.18 41.1249 100.145 41.0231C100.251 40.8873 100.427 40.8194 100.497 40.6837C100.321 40.6837 100.356 40.8534 100.216 40.8534C100.216 40.7855 100.216 40.7176 100.145 40.7176C100.005 40.9891 99.6179 41.1588 99.7234 41.5322C99.6882 41.6001 99.5475 41.5661 99.4772 41.634C99.5827 42.0752 99.0552 42.1431 99.1607 42.4825C98.8443 42.8219 98.5981 43.2632 98.4223 43.7383C98.5629 43.7383 98.5629 43.5686 98.6684 43.5686V43.8062ZM100.567 40.8534C100.602 40.8873 100.567 40.8194 100.567 40.8534ZM100.356 41.057C100.356 41.0909 100.321 41.0909 100.356 41.057C100.427 41.0231 100.356 40.9891 100.356 41.057ZM99.3014 41.3285V41.4304H99.4069C99.4421 41.3625 99.4421 41.3285 99.3717 41.2946C99.3366 41.3285 99.3366 41.3625 99.3014 41.3285ZM99.1959 41.4982C99.2311 41.6679 99.2311 41.3285 99.1959 41.4982ZM98.9497 41.9055C98.9497 41.9395 98.9146 41.9055 98.9497 41.9055ZM98.6333 42.7541C98.7036 42.6522 98.7388 42.4825 98.7739 42.3128C98.7036 42.3128 98.7036 42.2789 98.6333 42.2789C98.7739 42.4486 98.4223 42.6522 98.6333 42.7541ZM98.3168 42.788C98.3871 42.9577 98.3168 43.1274 98.2113 43.1953C98.4575 43.2971 98.5629 42.8219 98.3871 42.7541C98.3871 42.788 98.352 42.8219 98.3168 42.788ZM97.7542 44.1117C97.5432 44.3153 97.3674 44.7226 97.3674 44.9942C97.5432 44.7566 97.6838 44.4511 97.7542 44.1117H97.93C97.93 43.7383 98.2113 43.6026 98.2465 43.2632C97.8597 43.3989 98.0003 43.8402 97.7542 44.1117ZM97.1915 45.2996C97.297 45.3336 97.3674 45.1299 97.297 45.096C97.2619 45.1639 97.1564 45.1639 97.1915 45.2996ZM96.9454 45.7748C97.0157 45.673 97.1915 45.4693 97.1212 45.3675C97.0509 45.4693 96.8751 45.673 96.9454 45.7748ZM96.7344 47.0306H96.6992C96.6289 47.2003 96.4883 47.3361 96.4883 47.5737H96.4531C96.4179 47.6076 96.3828 47.6755 96.4179 47.7773C96.5586 47.8113 96.4531 47.6416 96.4883 47.5737C96.5937 47.404 96.7344 47.3021 96.7344 47.0306C96.8047 47.0306 96.7696 46.8949 96.8751 46.9288C96.9454 47.0646 96.8399 47.1664 96.9102 47.2343C97.1212 46.793 97.508 46.2839 97.5432 45.8087C97.3674 45.9784 97.5783 45.639 97.4729 45.6051C97.2267 46.1142 96.8751 46.4536 96.7344 47.0306ZM97.5783 46.3179C97.6135 46.2839 97.6838 46.1482 97.5783 46.1482C97.5783 46.1821 97.4729 46.3179 97.5783 46.3179ZM96.6641 46.25C96.6992 46.2839 96.6289 46.25 96.6641 46.25ZM97.1564 46.9288V46.9967H97.2619C97.2619 46.9627 97.2619 46.9627 97.297 46.9627V46.8609H97.1915C97.1915 46.8949 97.1915 46.9288 97.1564 46.9288ZM96.5586 47.7773C96.7344 47.7773 96.8047 47.5058 96.7344 47.404C96.6641 47.5058 96.6289 47.6755 96.5586 47.7773ZM99.9344 41.634C99.7937 41.5661 99.864 41.7698 99.7234 41.7358C99.7937 41.6001 99.7937 41.3964 100.005 41.3285C100.005 41.3625 100.04 41.3964 100.04 41.4304C100.005 41.4982 99.8992 41.4982 99.9344 41.634ZM99.4421 42.0413C99.5124 42.0413 99.5124 42.0752 99.6179 42.0752C99.5475 42.1431 99.5124 42.2789 99.4069 42.3128C99.4421 42.1771 99.4069 42.1092 99.4421 42.0413ZM100.321 42.2449C100.391 42.2449 100.356 42.2789 100.321 42.2449ZM99.2662 42.3807C99.4069 42.3468 99.3366 42.5165 99.3014 42.5504C99.2662 42.5504 99.2662 42.4486 99.2662 42.3807ZM99.0552 42.6862H99.1607V42.8559H99.0552V42.6862ZM98.8443 43.0935C98.9498 43.1274 98.9146 43.3989 98.7739 43.3311C98.7036 43.1953 98.8794 43.2292 98.8443 43.0935ZM98.7388 43.5008C98.7739 43.4668 98.7036 43.4329 98.7388 43.5008ZM98.7388 43.5008C98.7388 43.5347 98.6684 43.5347 98.7388 43.5008ZM99.5124 43.7044C99.5827 43.7383 99.5475 43.7723 99.5124 43.8062C99.4421 43.8062 99.5124 43.7383 99.5124 43.7044ZM98.1058 44.519C98.2113 44.519 98.1761 44.7226 98.0355 44.7226C98.0355 44.6208 98.0706 44.5529 98.1058 44.519ZM97.93 44.7566C98.1058 44.7566 98.0355 45.0281 97.8948 44.9942C97.8597 44.8923 97.8597 44.8245 97.93 44.7566ZM97.7542 45.1978C97.8597 45.062 97.8245 45.3336 97.7542 45.1978ZM97.3322 45.9784C97.508 46.0124 97.297 46.3857 97.1564 46.3857C97.2267 46.25 97.297 46.1142 97.3322 45.9784ZM97.1564 46.5215C97.1564 46.6573 97.0157 46.6573 96.9806 46.793C96.9102 46.7251 96.9806 46.4536 97.1564 46.5215ZM125.446 36.6107C125.481 36.5429 125.446 36.475 125.376 36.5089C125.305 36.5089 125.341 36.5768 125.341 36.6107C125.341 36.6786 125.411 36.6107 125.446 36.6107C125.516 36.8823 125.235 36.7804 125.165 36.9162C125.165 36.9501 125.235 36.9501 125.27 36.9501C125.094 37.0859 124.883 37.2217 124.778 37.4253C125.059 37.3574 124.672 37.8326 124.602 38.0363C124.497 38.1041 124.461 38.0023 124.356 38.0702C124.321 38.206 124.461 38.1381 124.532 38.172C124.497 38.3417 124.321 38.172 124.321 38.3417H124.286C124.286 38.3757 124.321 38.3417 124.321 38.3417C124.25 38.4096 124.039 38.6133 124.004 38.8169C123.934 38.8169 123.899 38.8169 123.864 38.783C123.899 38.9527 123.758 39.1224 123.653 39.2581C123.688 39.326 123.793 39.326 123.758 39.4618C123.653 39.36 123.653 39.4278 123.547 39.3939C123.477 39.4278 123.582 39.5636 123.512 39.6654C123.653 39.7333 123.512 39.4957 123.688 39.5636C123.793 40.0388 123.09 40.0048 123.09 40.514C122.949 40.514 122.949 40.6158 122.809 40.5818C122.774 40.48 122.844 40.48 122.844 40.4121C122.598 40.5139 122.809 40.6837 122.844 40.8873C122.809 41.0231 122.738 41.1588 122.527 41.1249C122.527 41.1928 122.527 41.2946 122.633 41.2607V41.3964C122.668 41.3625 122.668 41.2946 122.668 41.2607H122.809C122.809 41.3964 122.668 41.3964 122.703 41.5322C122.563 41.5661 122.563 41.4304 122.527 41.3285C122.316 41.4643 122.457 41.9395 122.176 42.0074C122.07 42.2789 122.07 42.6862 121.859 42.6862C121.754 42.5843 121.965 42.6522 121.894 42.4825C121.789 42.4486 121.789 42.5843 121.754 42.6522C122.07 43.0935 122.035 42.4146 122.246 42.2789C122.246 42.3128 122.246 42.3128 122.281 42.3128C122.141 42.6183 122.035 43.1274 121.789 43.365C121.789 43.0935 121.965 43.1274 121.965 42.8898C121.93 42.8219 121.789 42.9577 121.683 42.9577C121.683 43.0595 121.789 43.0595 121.754 43.1613C121.261 44.3153 120.769 45.4693 120.347 46.793C120.523 46.6912 120.523 46.3518 120.734 46.1482C120.804 46.2839 120.699 46.6233 120.523 46.6233C120.558 46.8949 120.453 46.9967 120.382 47.2003C120.207 47.2003 120.488 47.0985 120.382 46.9288C120.171 46.9967 120.207 47.3361 120.101 47.5397C120.101 47.5737 120.171 47.5737 120.207 47.5737V47.7773C120.136 47.7773 120.136 47.7094 120.101 47.7094C120.031 47.7434 119.996 47.8452 119.996 47.947C120.136 47.981 120.101 47.8452 120.136 47.8113C120.312 47.981 119.855 48.3883 119.996 48.6598C119.925 48.7955 119.89 48.9313 119.785 49.0331C119.785 49.8138 119.503 50.255 119.574 50.8999C119.433 51.7145 119.89 52.4612 120.734 52.4612C121.508 52.4612 122.316 51.986 122.703 51.5787C122.879 51.6126 122.914 51.5108 123.055 51.4769C123.371 51.0017 123.864 50.6962 124.286 50.2889C124.426 50.0514 124.637 49.8817 124.743 49.6101C125.094 49.4744 125.305 49.1689 125.446 48.8295C126.431 47.947 127.169 46.8609 127.943 45.7409C128.435 45.4693 128.47 44.8584 128.716 44.2814C128.751 44.1456 128.892 44.0778 128.962 43.942C129.138 43.5686 129.209 43.1613 129.349 42.7201C129.314 42.5843 129.455 42.6183 129.455 42.5165C129.455 42.4825 129.384 42.4825 129.349 42.4825C129.736 42.1771 129.595 41.6001 129.912 41.1928C130.053 41.2946 130.088 41.0909 130.193 41.057C130.193 40.7515 130.228 40.4121 130.51 40.2085C130.58 39.5636 131.072 39.326 131.389 38.9527C131.705 38.8508 132.092 38.9866 132.233 39.0205C132.303 39.0205 132.268 39.1224 132.303 39.1903C132.409 39.1903 132.549 39.1563 132.514 39.2921C132.936 39.1903 133.006 39.8012 133.147 40.1067C132.233 41.2607 131.635 42.8219 130.896 44.0438V43.9759C130.861 44.0099 130.861 44.0438 130.896 44.0438C130.826 44.2475 130.686 44.4172 130.51 44.5529C130.439 44.6887 130.721 44.6547 130.721 44.5869C130.861 44.6547 130.686 44.7566 130.545 44.7226C130.58 44.9263 130.615 45.062 130.51 45.1639C130.475 45.1639 130.475 45.096 130.475 45.062C130.299 45.5372 130.123 45.7409 130.088 46.3518C129.982 46.3179 130.053 46.2839 130.053 46.1821C129.842 46.3179 129.701 46.793 129.49 46.5894C129.384 46.6573 129.56 46.7251 129.49 46.827C129.279 46.8949 129.349 47.2003 129.138 47.2343C129.138 47.3021 129.244 47.2682 129.209 47.404C129.103 47.7434 128.892 48.0149 128.962 48.3204C128.892 48.3204 128.927 48.3883 128.927 48.4222C128.998 48.3883 128.998 48.3543 128.962 48.3204L129.068 48.2185C128.822 49.4065 128.224 50.4247 127.978 51.6805C127.943 51.6805 127.908 51.6466 127.872 51.6466C127.837 51.8502 127.908 51.9521 127.943 52.0878C127.661 52.0539 127.767 52.3254 127.661 52.4272C127.661 52.4612 127.732 52.4612 127.767 52.4951C127.767 52.563 127.626 52.5291 127.591 52.5969C127.767 52.6988 127.556 52.8006 127.661 53.0042H127.521C127.415 53.4794 127.486 53.5812 127.345 53.9546C127.345 54.0225 127.45 54.0225 127.486 53.9546C127.591 53.9885 127.45 54.1243 127.345 54.0903C127.45 54.26 127.099 54.7352 127.31 54.9389C127.204 55.1425 127.134 55.3801 127.275 55.6516C127.064 55.6177 127.204 55.7874 127.134 55.9571C127.134 56.0929 127.275 55.8892 127.275 55.991C127.204 56.1947 127.169 56.1607 127.275 56.3304C127.204 56.3304 127.169 56.3644 127.134 56.3983C127.415 58.333 127.908 60.1318 129.384 61.3876C129.314 61.5573 129.209 61.6931 129.138 61.8289C128.787 61.7949 128.751 61.5234 128.365 61.5573C126.923 60.3694 126.149 58.5366 125.798 56.2965C125.868 56.1268 125.798 55.8553 125.868 55.7195C125.903 55.5837 125.763 55.6177 125.763 55.5159C125.868 54.1243 125.903 52.8345 126.325 51.6805C126.29 50.9338 126.747 50.0853 126.853 49.4744C126.677 49.4404 126.747 49.6101 126.677 49.6441C126.642 49.5762 126.606 49.5422 126.536 49.5422C126.466 49.6101 126.536 49.678 126.677 49.6441C126.325 50.2211 125.868 50.6962 125.341 51.0696C125.341 51.2054 125.235 51.2054 125.235 51.3072C124.497 51.8163 124.11 52.6309 123.125 52.9024C122.281 53.683 120.699 53.5133 119.714 53.0042C119.116 52.4612 118.589 51.8842 118.026 51.3072C117.991 50.8999 117.815 50.255 118.062 49.8477C117.921 49.5083 118.097 49.0671 118.202 48.8295C118.167 48.558 118.273 48.1507 118.484 47.981C118.519 47.7094 118.413 47.5737 118.624 47.5397C118.589 47.4718 118.554 47.4379 118.484 47.4379C118.519 47.3021 118.589 47.2003 118.73 47.1664C118.624 47.0646 118.659 46.9967 118.8 46.9967C118.589 46.827 118.905 46.7591 118.87 46.4876C119.011 46.4536 119.011 46.216 118.941 46.1142C119.152 46.1481 119.081 45.9106 119.152 45.8087C119.081 46.6573 118.73 47.4718 118.484 48.2185C118.413 49.1689 118.132 49.712 118.237 50.7641C118.448 50.7302 118.308 50.5605 118.308 50.4247C118.378 49.8138 118.624 49.101 118.694 48.524C119.187 47.5737 119.398 46.216 119.925 45.2657C119.89 45.1299 119.89 45.096 119.925 44.9602C120.207 44.9602 120.312 44.6547 120.171 44.485C120.277 44.4511 120.347 44.3832 120.418 44.3493C120.347 43.942 120.84 43.908 120.769 43.5347H120.91C120.875 43.4668 120.91 43.3989 120.804 43.4329C120.804 43.331 120.875 43.3311 120.98 43.3311C120.91 42.9238 121.191 42.4825 121.437 42.1431C121.402 42.0752 121.332 42.0074 121.367 41.8716C121.578 41.8037 121.648 41.9055 121.824 41.8376C121.683 41.7698 121.683 41.634 121.543 41.634C121.543 41.4643 121.683 41.634 121.789 41.5322C121.754 41.3285 121.859 41.1928 121.789 41.0231C121.93 41.0231 121.965 41.057 122.07 41.1928C122.141 41.1588 122.105 41.0909 122.105 41.0231C122.211 40.9552 122.316 40.9212 122.281 40.7176C122.176 40.7515 122.105 40.8534 122.105 41.0231C122 41.0231 122 40.9212 121.965 40.8873C121.93 40.7176 122.211 40.8534 122.105 40.6158C122.211 40.6158 122.176 40.7176 122.316 40.6837C122.387 40.5479 122.211 40.5818 122.246 40.4461C122.352 40.5479 122.422 40.3782 122.492 40.3103C122.422 40.2085 122.352 40.4461 122.281 40.2764C122.316 40.0727 122.492 40.2424 122.492 40.0048C122.563 40.0048 122.563 40.0727 122.633 40.0727C122.703 40.0048 122.668 39.8351 122.738 39.7672H122.844C122.809 39.6994 122.738 39.6994 122.738 39.7672C122.563 39.6994 122.774 39.5975 122.703 39.5636C122.703 39.4618 122.844 39.5297 122.879 39.5636C123.02 39.5297 122.985 39.1903 122.844 39.2242C122.914 39.1224 123.02 39.0205 123.09 38.8848C123.16 38.8848 123.16 38.9527 123.231 38.9866C123.371 38.8169 123.442 38.5454 123.653 38.4096C123.653 38.2399 123.582 38.172 123.582 38.0363C123.653 38.0702 123.688 38.1041 123.723 38.172C123.899 37.8666 123.723 37.629 124.004 37.3574C124.075 37.3574 124.039 37.4253 124.11 37.4253C124.215 37.3574 123.969 37.2896 124.004 37.1538C124.075 37.1199 124.18 37.1199 124.215 37.052C124.286 37.1877 124.391 37.052 124.426 37.018C124.497 36.8823 124.286 36.9501 124.321 36.8144C124.461 36.7804 124.497 36.5768 124.602 36.7465C124.708 36.6447 124.567 36.5768 124.602 36.4071C124.672 36.3732 124.813 36.475 124.813 36.3732C124.813 36.2034 124.778 36.3732 124.708 36.3392C125.059 35.7622 125.376 35.2192 125.833 34.744C125.763 34.6082 125.868 34.4385 125.692 34.3367C125.727 34.2009 125.974 34.133 125.974 34.3367C125.903 34.3367 125.868 34.3028 125.833 34.3028C125.833 34.4046 125.868 34.5064 125.974 34.5403C126.114 34.3367 126.22 34.0652 126.29 33.7936C126.36 33.7936 126.36 33.8615 126.431 33.8955C126.642 33.6918 126.642 33.3185 126.853 33.1148C126.923 33.013 127.099 32.9791 127.099 32.7754C127.134 32.7754 127.169 32.7415 127.169 32.7075C127.099 32.7075 127.099 32.7415 127.099 32.7754C126.958 32.7754 126.993 32.9112 126.853 32.8772C126.888 32.7415 126.712 32.8433 126.747 32.7075C127.134 32.7415 127.275 32.3681 127.169 32.2324C127.275 32.1645 127.345 31.9948 127.45 32.0966C127.521 32.0287 127.415 32.0287 127.45 31.9269C127.732 31.9948 127.732 31.5875 127.767 31.5196C127.908 31.3159 128.154 31.282 128.154 31.0105C128.294 30.9765 128.365 30.8747 128.435 30.8068C128.189 30.705 128.119 31.1123 127.872 31.1462V31.0784C127.732 31.1123 127.661 31.1802 127.661 31.3159C127.626 31.3159 127.591 31.3499 127.556 31.3499C127.556 31.4178 127.626 31.3838 127.661 31.4178V31.4857C127.521 31.5535 127.486 31.4517 127.38 31.5196C127.626 31.6554 127.239 31.6214 127.239 31.7572C127.064 31.8929 126.853 31.9948 126.958 32.2663C126.817 32.2663 126.853 32.1984 126.712 32.2663C126.747 32.1645 126.817 32.1305 126.817 31.9608C127.134 31.7572 127.521 31.4178 127.45 31.1462C127.802 31.1123 128.119 30.5014 128.505 30.2298C128.54 30.162 128.681 30.162 128.716 30.0601C128.646 29.9583 128.505 30.128 128.505 30.2298C128.4 30.2298 128.4 30.1959 128.4 30.0941C127.978 30.5353 127.38 31.0444 126.888 31.6554C126.817 31.3838 127.239 31.282 127.275 31.0105C128.154 30.3995 128.646 29.4492 129.595 28.8722C129.56 28.8043 129.631 28.8043 129.631 28.7025C129.947 28.397 130.65 28.397 131.072 28.1594C131.494 28.1594 132.162 28.2273 132.549 28.2613C132.655 28.3291 132.936 28.4988 133.042 28.4649C133.253 28.6686 133.674 28.9401 133.85 29.4153C133.85 29.4492 133.745 29.4831 133.78 29.4831C133.78 29.6528 133.85 29.9244 133.885 30.0941C134.061 31.1802 133.674 31.6893 132.584 31.6893C132.584 31.5535 132.479 31.5875 132.409 31.5196C132.444 30.8747 132.198 30.3656 132.162 29.6189C131.6 29.8565 131.178 30.2298 130.65 30.5014C129.314 31.7572 128.083 33.0809 127.028 34.5743H126.888C126.747 35.0495 126.149 35.4567 126.009 36.0337C125.798 36.0677 125.763 36.2713 125.692 36.4071C125.552 36.3732 125.587 36.475 125.481 36.4071C125.376 36.441 125.622 36.5429 125.481 36.6107H125.446ZM129.068 29.585C129.209 29.4831 128.962 29.7207 129.068 29.585ZM128.751 30.2298C128.716 30.2977 128.751 30.3656 128.822 30.3995C128.857 30.3656 128.927 30.1959 128.822 30.1959C128.822 30.1959 128.787 30.2298 128.751 30.2298ZM128.33 30.6371C128.435 30.6032 128.4 30.739 128.54 30.705C128.505 30.6032 128.611 30.6371 128.576 30.5014C128.435 30.5014 128.365 30.5353 128.33 30.6371ZM127.872 31.7572C128.048 31.7911 127.802 31.9948 127.872 31.7572ZM127.661 32.0966H127.732C127.802 31.9948 127.591 31.9608 127.591 32.0626C127.626 32.0626 127.661 32.0627 127.661 32.0966ZM127.239 32.5378C127.45 32.6057 127.591 32.1984 127.486 32.1645C127.415 32.3342 127.31 32.4021 127.239 32.5378ZM126.044 35.287V35.3549C126.149 35.4228 126.149 35.2192 126.079 35.2192C126.079 35.2531 126.079 35.287 126.044 35.287ZM125.341 35.5925C125.305 35.5925 125.235 35.5925 125.235 35.6265C125.27 35.6265 125.305 35.6265 125.341 35.5925ZM125.2 36.2374C125.094 36.3732 124.989 36.475 124.954 36.6447C125.13 36.6107 125.165 36.441 125.2 36.2374C125.27 36.2374 125.2 36.2034 125.2 36.2374ZM124.919 36.7465C124.919 36.7804 124.883 36.7126 124.919 36.7465ZM124.954 36.9501C124.989 37.0859 124.989 36.7804 124.954 36.9501ZM124.602 37.1877C124.637 37.2217 124.602 37.1538 124.602 37.1877ZM124.391 37.5271C124.497 37.5271 124.497 37.4253 124.532 37.3574C124.426 37.3235 124.426 37.4253 124.391 37.5271ZM124.778 37.5271C124.743 37.5271 124.708 37.5271 124.708 37.5611C124.708 37.5271 124.778 37.5611 124.778 37.5271ZM124.321 37.7308C124.321 37.7647 124.25 37.7308 124.321 37.7308H124.391V37.595C124.321 37.5611 124.321 37.6629 124.321 37.7308ZM124.567 37.6629C124.708 37.7987 124.708 37.5271 124.567 37.6629ZM124.215 37.8326C124.356 37.7308 124.11 37.9684 124.215 37.8326ZM124.532 37.9344C124.637 37.7647 124.567 38.0702 124.532 37.9344ZM124.004 38.5793C123.969 38.5793 123.934 38.5793 123.934 38.6133C123.969 38.6133 124.004 38.6133 124.004 38.5793ZM123.723 38.9527C123.758 38.9527 123.688 38.9187 123.723 38.9527ZM123.547 39.0884C123.512 39.0205 123.688 38.9527 123.547 38.9527C123.547 38.9527 123.442 39.0884 123.547 39.0884ZM123.653 39.0884C123.653 39.1224 123.617 39.0884 123.653 39.0884ZM123.371 39.4278V39.5636C123.512 39.5975 123.512 39.36 123.371 39.4278C123.407 39.3939 123.477 39.2581 123.371 39.2581C123.371 39.2921 123.266 39.4278 123.371 39.4278ZM123.16 39.8012C123.16 39.8351 123.125 39.8012 123.16 39.8012C123.301 39.8012 123.266 39.5975 123.301 39.4957C123.16 39.5297 123.196 39.6654 123.16 39.8012ZM123.477 39.8691C123.477 39.8012 123.582 39.8351 123.547 39.6994H123.442C123.442 39.7672 123.407 39.8691 123.477 39.8691ZM122.527 40.1745C122.633 40.0048 122.598 40.3103 122.527 40.1745ZM122.492 41.1249C122.563 40.9891 122.598 40.8194 122.703 40.7176C122.527 40.7176 122.422 41.0231 122.492 41.1249ZM122.211 41.634C122.352 41.6001 122.422 41.2946 122.387 41.2267C122.316 41.3625 122.246 41.4643 122.211 41.634ZM122 41.3285C122.035 41.3625 121.965 41.3285 122 41.3285ZM121.859 41.6679C121.824 41.6679 121.789 41.6679 121.789 41.7019C121.824 41.7019 121.859 41.7019 121.859 41.6679ZM122.105 41.8376C122.211 41.8716 122.281 41.6679 122.211 41.6679C122.211 41.7358 122.07 41.7019 122.105 41.8376ZM121.578 42.2449C121.648 42.1771 121.824 42.0074 121.648 41.9395C121.683 42.0752 121.437 42.1431 121.578 42.2449ZM122.07 42.0074C122 41.9734 122 42.0413 122 42.1092H121.965C121.93 42.1431 121.894 42.211 121.894 42.2789C122.035 42.3128 121.965 42.1771 122 42.1092C122.035 42.0752 122.07 42.0413 122.07 42.0074C122.141 41.9734 122.07 41.9395 122.07 42.0074ZM121.437 43.2632C121.437 43.1613 121.508 43.1274 121.402 43.0935C121.402 43.1613 121.367 43.2292 121.437 43.2632ZM121.261 43.365C121.508 43.4329 121.121 43.5686 121.261 43.365ZM121.191 43.6365H121.261V43.5347H121.191V43.6365ZM121.051 44.1456C121.086 44.0099 121.332 43.7383 121.156 43.6705C121.226 43.8741 120.945 44.0099 121.051 44.1456ZM120.945 43.7383C120.98 43.7723 120.91 43.7383 120.945 43.7383ZM129.384 43.7383C129.42 43.7723 129.349 43.7383 129.384 43.7383ZM129.209 44.0438C129.244 44.1796 129.244 43.8741 129.209 44.0438ZM120.98 44.3493C120.98 44.3153 121.051 44.2475 120.98 44.2475C120.98 44.2814 120.91 44.3153 120.98 44.3493ZM120.91 44.4511C120.945 44.5869 120.945 44.2814 120.91 44.4511ZM128.822 44.6547C128.892 44.7226 128.962 44.6208 128.998 44.5529C128.927 44.5529 128.857 44.5869 128.822 44.6547ZM120.84 44.6547C120.769 44.6547 120.699 44.6547 120.699 44.7226C120.734 44.7905 120.875 44.7905 120.91 44.6887C120.84 44.6887 120.84 44.6547 120.84 44.6547C120.91 44.6208 120.84 44.5869 120.84 44.6547ZM129.877 44.7226C129.947 44.8923 129.947 44.5529 129.877 44.7226ZM130.404 44.7905C130.404 44.8245 130.369 44.7905 130.404 44.7905ZM120.769 45.096C120.769 45.0281 120.91 44.8245 120.734 44.8584C120.664 44.8923 120.664 45.096 120.769 45.096ZM129.771 44.9602C129.806 45.1299 129.806 44.7905 129.771 44.9602ZM130.123 45.3336C130.158 45.2317 130.334 45.062 130.228 44.9602C130.193 45.062 130.053 45.2657 130.123 45.3336ZM130.017 45.062C130.053 45.062 129.982 45.0281 130.017 45.062ZM118.694 50.4587H118.659C118.659 50.7302 118.589 51.4429 118.87 51.6466C118.835 51.5448 118.941 51.5448 118.905 51.4429C118.694 51.3751 118.87 51.0696 118.8 50.8999C118.87 50.8659 118.941 50.7981 119.081 50.7981C119.081 50.6284 119.046 50.4587 119.011 50.3568C118.87 50.4587 119.081 50.6284 118.941 50.7641C118.905 50.7302 118.8 50.7302 118.835 50.5944C119.011 50.5265 118.835 50.3908 118.8 50.3568C119.011 50.3908 118.835 50.2211 118.905 50.2211C118.976 50.1532 119.011 50.2211 119.116 50.2211C119.081 49.8817 119.257 49.7459 119.116 49.4744C119.468 49.2028 119.257 48.558 119.574 48.3543C119.398 48.3204 119.644 47.981 119.679 47.8113C119.785 47.8452 119.855 47.9131 119.89 47.7773L119.679 47.5737C119.749 47.4718 119.749 47.37 119.89 47.3361C119.855 47.4379 119.82 47.4718 119.96 47.5058C120.031 46.9967 120.207 46.7251 120.136 46.3857C120.242 46.3857 120.207 46.4536 120.312 46.3857V46.216H120.347C120.488 45.8766 120.382 45.639 120.418 45.3336C120.523 45.3336 120.488 45.5033 120.593 45.5033C120.734 45.2657 120.453 45.3336 120.488 45.1299C120.242 45.096 120.418 45.4014 120.207 45.3675C120.066 46.25 119.714 46.9627 119.468 47.7434C119.538 47.7434 119.538 47.8113 119.538 47.9131C119.468 47.981 119.327 47.981 119.257 48.0488C119.011 48.7616 118.87 49.5422 118.694 50.4587ZM120.699 45.1639C120.84 45.062 120.593 45.2996 120.699 45.1639ZM129.631 45.4014C129.701 45.4354 129.736 45.3675 129.806 45.3675C129.806 45.2657 129.806 45.1299 129.666 45.1299C129.701 45.2657 129.595 45.2996 129.631 45.4014ZM120.488 45.5712C120.593 45.4014 120.523 45.7069 120.488 45.5712ZM129.701 45.7409C129.736 45.5712 129.666 45.9784 129.701 45.7409ZM129.244 45.9784C129.244 45.8427 129.455 45.9106 129.455 45.7748C129.349 45.7748 129.103 45.8766 129.244 45.9784ZM129.666 46.0124C129.666 45.9784 129.736 45.9445 129.771 45.9106C129.736 45.9106 129.701 45.9106 129.701 45.8766H129.631C129.631 45.9106 129.595 46.0124 129.666 46.0124ZM128.505 46.0803C128.505 46.0124 128.576 45.9784 128.505 45.9445C128.47 45.9784 128.4 46.0463 128.505 46.0803ZM129.455 46.3179H129.56V46.216H129.455V46.3179ZM128.365 46.2839C128.33 46.2839 128.294 46.2839 128.294 46.3179C128.294 46.2839 128.365 46.3179 128.365 46.2839ZM129.209 46.4876C129.209 46.3857 129.244 46.2839 129.138 46.3179C129.033 46.3857 129.138 46.4197 129.209 46.4876ZM128.154 46.5215H128.224V46.4197H128.154V46.5215ZM129.068 46.827C129.103 46.7591 129.279 46.6233 129.173 46.5215C129.068 46.5215 128.962 46.7591 129.068 46.827ZM128.998 46.5894C128.962 46.5894 128.927 46.5894 128.927 46.6233C128.927 46.6233 128.998 46.6233 128.998 46.5894ZM127.978 46.793C128.083 46.6233 128.048 46.9288 127.978 46.793ZM128.927 46.793C128.927 46.827 128.892 46.793 128.927 46.793ZM127.802 46.9967C127.802 46.9627 127.872 46.8949 127.802 46.8949C127.802 46.9288 127.732 46.9627 127.802 46.9967ZM127.345 47.6076C127.415 47.6076 127.486 47.5737 127.521 47.5397C127.45 47.404 127.732 47.2682 127.767 47.0985C127.556 47.1664 127.31 47.4379 127.345 47.6076ZM128.435 48.1507C128.611 48.1507 128.435 48.3204 128.435 48.1507C128.435 47.947 128.611 48.1507 128.646 48.1507C128.646 48.0488 128.646 47.9131 128.716 47.8452C128.611 47.8452 128.576 47.9131 128.576 47.8452C128.611 47.6416 128.751 47.5397 128.857 47.37C128.787 47.3361 128.716 47.5058 128.716 47.37C128.716 47.2003 128.857 47.37 128.927 47.3021C128.857 47.2003 129.033 47.1324 128.927 47.0985C128.54 47.37 128.294 48.1167 128.33 48.524C128.048 48.6598 127.908 49.3047 127.943 49.5762C127.908 49.5083 127.978 49.4744 128.013 49.4744C128.048 49.6441 127.908 49.712 128.083 49.7459C128.048 49.5422 128.224 49.3725 128.119 49.2028C128.224 49.2028 128.189 49.2707 128.294 49.2028C128.224 49.0331 128.294 48.9992 128.189 48.8634C128.365 48.8974 128.33 48.7616 128.435 48.7277C128.435 48.524 128.4 48.3543 128.365 48.1846C128.4 48.1846 128.4 48.1507 128.435 48.1507ZM127.943 47.3021C127.978 47.1324 127.908 47.5397 127.943 47.3021ZM127.028 47.981C126.677 48.2185 126.466 48.558 126.22 48.8634C126.536 48.7955 126.782 48.2864 127.028 47.981C127.064 47.947 127.064 47.947 127.134 47.981C127.134 47.8791 127.204 47.8452 127.099 47.8113C127.099 47.9131 126.993 47.8791 127.028 47.981ZM128.998 47.8113C128.962 47.8113 128.927 47.8113 128.927 47.8452C128.927 47.8452 128.998 47.8452 128.998 47.8113ZM127.767 48.0488C127.732 48.0828 127.697 48.1846 127.767 48.1846C127.802 48.1507 127.837 48.0828 127.767 48.0488C127.767 48.0149 127.767 47.947 127.732 47.947C127.697 47.981 127.697 48.0488 127.767 48.0488ZM119.96 48.0149C120.031 48.1846 120.031 47.8452 119.96 48.0149ZM127.239 48.1846C127.239 48.1507 127.31 48.0828 127.239 48.0488C127.204 48.1167 127.134 48.1507 127.239 48.1846ZM119.925 48.1846C119.96 48.3543 119.96 48.0149 119.925 48.1846ZM128.822 48.1846C128.857 48.2186 128.822 48.1507 128.822 48.1846ZM126.958 48.558C126.958 48.4561 127.204 48.3883 127.064 48.3204C127.028 48.3543 126.817 48.4561 126.958 48.558ZM128.751 48.4222C128.787 48.4561 128.716 48.4222 128.751 48.4222ZM127.45 48.4561C127.556 48.6258 127.486 48.3204 127.45 48.4561ZM127.697 48.6598C127.802 48.7277 127.802 48.4901 127.697 48.558V48.6598ZM119.468 48.7616C119.503 48.7616 119.538 48.7616 119.574 48.7955C119.609 48.7616 119.679 48.558 119.538 48.5919C119.574 48.6937 119.468 48.6598 119.468 48.7616ZM126.712 48.7955C126.853 48.7955 126.853 48.6598 126.923 48.5919C126.817 48.5919 126.747 48.6598 126.712 48.7955ZM127.345 48.6598C127.415 48.6598 127.45 48.6258 127.486 48.5919C127.415 48.5919 127.38 48.6258 127.345 48.6598ZM128.646 48.9313C128.787 48.8974 128.857 48.8295 128.857 48.6598C128.751 48.6937 128.646 48.7616 128.646 48.9313ZM126.501 56.4662V56.5341C126.536 56.5341 126.536 56.5341 126.536 56.568H126.642C126.606 56.4323 126.747 56.2626 126.642 56.1607C126.642 56.1947 126.571 56.1947 126.536 56.1947C126.536 56.2626 126.677 56.3983 126.536 56.4662H126.501C126.466 56.2965 126.571 56.1947 126.431 56.0929C126.431 56.1607 126.431 56.2286 126.395 56.2626C126.29 56.1947 126.29 56.0929 126.29 55.9571C126.536 55.991 126.431 55.8892 126.395 55.7874C126.501 55.7874 126.642 56.0589 126.712 55.8553C126.571 55.8892 126.642 55.7195 126.642 55.6516C126.536 55.6177 126.501 55.6177 126.466 55.5498H126.642C126.501 55.3462 126.606 55.2104 126.606 54.9049C126.466 54.9389 126.501 54.837 126.431 54.837C126.29 55.0067 126.501 54.9389 126.501 55.1086C126.431 55.0407 126.325 55.0746 126.29 55.0407C126.29 54.9389 126.36 54.871 126.325 54.7352C126.501 54.7692 126.536 54.6673 126.431 54.6334C126.466 54.5316 126.571 54.7013 126.642 54.5655C126.571 54.4976 126.431 54.5316 126.395 54.4637C126.466 54.3958 126.571 54.3958 126.606 54.294C126.571 54.3958 126.677 54.3619 126.712 54.4297C126.677 54.26 126.677 53.9206 127.028 54.0225C126.923 53.6491 127.169 53.5133 127.064 53.14C126.923 53.3436 126.888 53.717 126.888 53.8867C126.853 53.6491 126.782 52.9363 127.099 53.0042C127.099 52.9024 127.099 52.8006 127.134 52.7327C126.993 52.8006 126.993 52.6988 127.028 52.5969C127.099 52.563 127.099 52.6309 127.169 52.6309C127.239 52.4951 127.345 52.1218 127.38 51.8502C127.169 51.9181 127.275 51.7145 127.169 51.6466C127.134 51.986 126.782 52.3254 126.888 52.8006C126.712 52.8006 126.712 53.0042 126.712 53.2079C126.571 53.1739 126.606 53.2758 126.466 53.2418C126.395 53.0382 126.606 53.106 126.606 52.9363C126.36 52.9024 126.642 52.7327 126.642 52.6648C126.536 52.4612 126.606 52.1896 126.747 52.0878C126.817 51.5108 126.923 50.832 127.239 50.4247C127.169 50.0174 127.486 49.4404 127.556 48.9653H127.697V48.7277C127.415 48.7955 127.345 49.0671 127.169 49.2368C127.239 49.2368 127.275 49.1689 127.31 49.2368C127.275 49.3725 127.239 49.3047 127.275 49.4744C127.134 49.4404 127.134 49.5422 127.064 49.5762C127.31 49.8138 126.958 50.1532 127.028 50.5605C126.958 50.4926 126.747 50.4926 126.747 50.6284C126.782 50.7641 126.923 50.5265 126.923 50.6623C126.853 50.7981 126.747 50.8659 126.677 51.0017C126.642 51.1035 126.782 51.0696 126.747 51.2054C126.677 51.2054 126.536 51.1714 126.606 51.2732C126.677 51.409 126.712 51.1714 126.747 51.2732C126.747 51.3751 126.747 51.4769 126.606 51.4429C126.571 51.5787 126.677 51.6126 126.712 51.6805C126.536 51.6805 126.712 51.7823 126.677 51.8842C126.571 51.9521 126.466 51.986 126.431 52.1218C126.571 52.4272 126.395 52.5969 126.466 52.9363C126.395 53.0042 126.29 53.0042 126.255 53.0382C126.36 53.2758 126.29 54.1582 126.114 54.0225C126.114 54.1582 126.149 54.2261 126.184 54.3279H126.009C126.431 54.9389 125.903 55.9231 126.29 56.602C126.395 56.568 126.255 56.4662 126.325 56.4662C126.395 56.5001 126.431 56.5001 126.501 56.4662ZM126.958 48.9992C126.958 48.9313 127.099 48.9313 127.064 48.8295H126.923C126.923 48.8974 126.923 48.9992 126.958 48.9992ZM126.184 49.2707C126.36 49.2368 126.712 48.9992 126.536 48.8634C126.466 49.0671 126.255 49.101 126.184 49.2707ZM127.275 48.9992C127.275 48.9653 127.345 48.8974 127.275 48.8634C127.275 48.9313 127.204 48.9653 127.275 48.9992ZM124.989 50.0174C125.024 50.0853 125.059 50.1192 125.13 50.1532C125.411 49.712 125.903 49.4744 126.184 48.9992C126.079 48.9992 126.114 48.8974 126.009 48.9313C125.798 49.4065 125.341 49.678 124.989 50.0174ZM118.237 48.9992C118.273 49.0331 118.202 48.9653 118.237 48.9992ZM128.646 49.0331C128.716 49.2707 128.47 49.0671 128.646 49.0331C128.716 48.9992 128.646 48.9992 128.646 49.0331ZM119.433 49.1689C119.538 49.2368 119.538 48.9653 119.433 49.0331V49.1689ZM126.677 49.135C126.782 48.9653 126.747 49.2707 126.677 49.135ZM128.435 49.4744C128.54 49.4744 128.681 49.2707 128.576 49.2028C128.54 49.3047 128.435 49.3386 128.435 49.4744ZM125.974 49.4404C126.009 49.6101 125.692 49.6441 125.903 49.7459C125.938 49.5422 126.184 49.5422 126.22 49.3725C126.079 49.3386 126.114 49.4744 125.974 49.4404ZM126.255 49.6441C126.29 49.5762 126.466 49.4744 126.325 49.3725C126.36 49.5083 126.114 49.5762 126.255 49.6441ZM127.099 49.4065C127.134 49.4404 127.064 49.3725 127.099 49.4065ZM127.591 50.255C127.626 50.1871 127.697 50.2211 127.767 50.2211C127.767 50.1532 127.767 50.0853 127.802 50.0514C127.802 50.1532 127.837 50.1871 127.943 50.1871C127.978 50.0853 127.943 49.9835 127.978 49.8138C127.767 49.8817 127.943 49.5762 127.767 49.6101C127.837 49.9156 127.486 50.0174 127.591 50.255ZM125.798 49.8477C125.798 49.8138 125.798 49.8138 125.833 49.8138C125.833 49.7459 125.833 49.712 125.763 49.7459C125.763 49.7798 125.727 49.8477 125.798 49.8477ZM127.099 49.7798C127.099 49.7459 127.028 49.712 127.028 49.7798C127.064 49.7798 127.064 49.8138 127.099 49.7798ZM126.29 49.8138C126.36 49.9835 126.36 49.6441 126.29 49.8138ZM126.431 49.8477H126.501V49.7798H126.431V49.8477ZM119.644 49.8817C119.644 49.9156 119.609 49.8817 119.644 49.8817ZM125.13 50.5605C125.376 50.3908 125.516 50.1871 125.657 49.9495C125.341 50.0174 125.235 50.255 125.13 50.5605ZM126.853 50.3568C126.993 50.3568 127.064 50.0174 126.923 50.0174C126.888 50.1192 126.853 50.2211 126.853 50.3568ZM124.989 50.255C124.989 50.2211 124.989 50.2211 125.024 50.2211C125.024 50.1532 125.024 50.1192 124.954 50.1532C124.954 50.1871 124.954 50.255 124.989 50.255ZM126.009 50.2211C125.974 50.2211 125.903 50.2211 125.903 50.255C125.938 50.255 126.009 50.255 126.009 50.2211ZM124.708 50.3568H124.778V50.255H124.708V50.3568ZM127.591 50.5605C127.486 50.5265 127.521 50.4247 127.521 50.2889C127.345 50.5944 127.204 51.1375 127.169 51.5108C127.45 51.5108 127.275 51.6805 127.38 51.7145C127.486 51.6466 127.521 51.5448 127.521 51.3751C127.31 51.3411 127.486 51.1714 127.38 51.0356C127.521 50.8659 127.591 50.8659 127.556 50.6962C127.661 50.6962 127.626 50.832 127.732 50.7981C127.732 50.6284 127.872 50.3908 127.767 50.255C127.626 50.2889 127.591 50.4587 127.591 50.5605ZM124.497 50.6284C124.637 50.6623 124.637 50.3908 124.532 50.3908C124.461 50.4587 124.532 50.4926 124.497 50.6284ZM125.27 50.4926V50.5944H125.376C125.411 50.5265 125.411 50.4926 125.341 50.4587C125.305 50.4926 125.305 50.5265 125.27 50.4926ZM124.391 50.7641C124.426 50.6623 124.286 50.5605 124.286 50.6623C124.321 50.6623 124.286 50.7641 124.391 50.7641ZM125.235 50.6623C125.235 50.7302 125.165 50.6962 125.235 50.6623C125.305 50.6284 125.235 50.6284 125.235 50.6623ZM124.743 50.8659C124.883 50.8659 124.989 50.6962 124.778 50.6962C124.778 50.7641 124.778 50.832 124.743 50.8659ZM124.215 50.7981C124.426 50.7981 124.18 51.0356 124.215 50.7981ZM127.556 51.0696C127.697 50.9678 127.45 51.2054 127.556 51.0696ZM125.165 51.2393C125.2 51.2054 125.27 51.0356 125.13 51.0696C125.13 51.1375 125.094 51.2393 125.165 51.2393ZM124.004 52.2575C124.004 52.1557 123.899 52.1557 123.864 52.0539C123.793 52.2236 123.899 52.3593 124.004 52.2575ZM127.521 52.3254V52.3933C127.31 52.5969 127.732 52.2915 127.521 52.3254ZM126.22 52.5291C126.29 52.6309 126.466 52.4272 126.29 52.4272C126.29 52.4612 126.22 52.4951 126.22 52.5291ZM127.134 53.0382C127.099 53.0382 127.064 53.0382 127.064 53.0721C127.099 53.0721 127.134 53.0721 127.134 53.0382ZM126.22 53.3097C126.36 53.4455 126.079 53.4455 126.22 53.3097ZM126.817 54.4297C126.853 54.5655 126.853 54.26 126.817 54.4297ZM126.747 54.837C126.782 54.837 126.747 54.8031 126.747 54.837ZM126.677 56.0589C126.712 56.0589 126.642 56.025 126.677 56.0589ZM126.22 56.7377C126.325 56.9074 126.255 56.602 126.22 56.7377ZM126.431 56.7377C126.571 56.6359 126.325 56.8735 126.431 56.7377ZM126.255 56.9074C126.36 56.8056 126.22 57.2808 126.255 56.9074ZM126.466 57.2129C126.606 57.3487 126.325 57.3487 126.466 57.2129ZM126.677 57.4844C126.571 57.4844 126.712 57.2808 126.606 57.3147C126.466 57.3487 126.606 57.6202 126.677 57.4844ZM127.275 31.3159C127.415 31.2141 127.169 31.4517 127.275 31.3159ZM127.661 31.3159C127.697 31.3159 127.732 31.3499 127.732 31.4178H127.661V31.3159ZM126.712 31.8251C126.747 31.8251 126.712 31.7911 126.712 31.8251ZM127.239 31.7572H127.345C127.345 31.8251 127.31 31.859 127.239 31.859V31.7572ZM126.114 32.4699C126.184 32.1645 126.466 32.0966 126.606 31.859C126.642 32.0966 126.255 32.2663 126.114 32.4699ZM126.817 31.9608C126.782 31.859 126.642 31.9948 126.817 31.9608ZM126.642 32.0626C126.642 32.0287 126.677 32.0287 126.712 32.0287C126.712 32.0627 126.677 32.0287 126.642 32.0626ZM119.679 44.2814C119.785 44.2135 119.749 44.0099 119.89 43.9759V44.0778C119.785 44.0778 119.785 44.2135 119.749 44.3153C119.89 44.3153 119.89 44.1796 119.89 44.0778C120.031 43.8062 120.171 43.5686 120.101 43.2292C119.996 43.1953 119.96 43.2632 119.96 43.3311C119.855 43.2971 119.996 43.1953 119.96 43.1274C120.031 43.1953 120.207 43.1613 120.171 43.2971C120.277 43.2971 120.277 43.0935 120.171 43.0935C120.242 43.0256 120.312 43.1274 120.382 43.0256C120.699 42.0074 121.156 41.2267 121.472 40.3782C122.141 39.4618 122.457 38.3757 123.16 37.595C123.125 37.5611 123.125 37.4932 123.125 37.3914C123.407 37.4253 123.16 37.1199 123.477 37.1199C123.617 36.4071 124.145 36.0337 124.356 35.3889C124.708 35.2192 124.743 34.71 125.13 34.5403C125.165 34.2349 125.341 34.0652 125.587 33.9633C125.552 33.5561 126.009 33.5561 125.903 33.1827C125.973 33.1827 126.009 33.1488 126.079 33.1488C126.079 32.7415 126.431 32.6736 126.536 32.3681C126.642 32.3681 126.606 32.2663 126.712 32.3002C126.571 32.6396 126.079 32.9791 126.255 33.3524C123.512 36.5429 121.543 40.48 119.855 44.6547C119.679 44.6208 119.679 44.4511 119.679 44.2814ZM126.536 32.3681C126.536 32.3342 126.501 32.3681 126.536 32.3681ZM126.255 32.436H126.325V32.5039H126.255V32.436ZM126.114 32.4699V32.5718H126.009C126.009 32.5378 126.079 32.4699 126.114 32.4699ZM125.868 32.7075C125.938 32.7415 125.868 32.7754 125.868 32.8433C125.798 32.8094 125.868 32.7415 125.868 32.7075ZM126.853 33.1148H126.712C126.747 33.0469 126.782 33.013 126.853 33.0469V33.1148ZM126.606 33.1148C126.712 32.9451 126.642 33.2506 126.606 33.1148ZM125.481 33.1488H125.587V33.2506C125.552 33.2166 125.552 33.2506 125.552 33.2845H125.446V33.1827C125.481 33.2166 125.481 33.1827 125.481 33.1488ZM126.255 33.1827C126.29 33.2166 126.22 33.1827 126.255 33.1827ZM126.536 33.1827C126.642 33.2166 126.571 33.4542 126.466 33.3863C126.36 33.2845 126.501 33.2506 126.536 33.1827ZM125.27 33.4542C125.376 33.2845 125.341 33.59 125.27 33.4542ZM126.501 33.6579C126.466 33.7258 126.255 33.6239 126.255 33.5221C126.36 33.4203 126.395 33.6239 126.501 33.6579ZM125.2 33.5561C125.305 33.6579 125.13 33.8615 124.989 33.8615C125.059 33.7258 125.13 33.6579 125.2 33.5561ZM125.376 33.6579C125.411 33.6579 125.341 33.6239 125.376 33.6579ZM126.044 33.8955C126.149 33.8615 126.114 33.9633 126.184 33.9633C126.149 34.0652 125.974 33.9973 126.044 33.8955ZM124.919 33.9633C124.954 33.9294 124.883 33.9294 124.919 33.9633ZM124.919 33.9633C124.883 34.133 124.743 34.167 124.743 34.3367C124.532 34.2349 124.848 34.0652 124.919 33.9633ZM125.833 33.9973C125.973 33.8955 125.727 34.133 125.833 33.9973ZM124.567 34.4725C124.743 34.4385 124.567 34.2688 124.567 34.4725ZM124.567 34.4725C124.567 34.5064 124.497 34.4725 124.567 34.4725ZM125.446 34.6082C125.446 34.5743 125.516 34.5743 125.552 34.5743C125.516 34.6082 125.481 34.6082 125.446 34.6082ZM124.356 34.71C124.426 34.7779 124.321 34.9816 124.18 34.9476C124.25 34.8458 124.286 34.7779 124.356 34.71ZM125.376 34.9476C125.411 35.1173 125.411 34.7779 125.376 34.9476ZM124.11 35.0834C124.145 35.0834 124.075 35.0495 124.11 35.0834ZM123.969 35.321C123.969 35.2531 123.969 35.1852 124.075 35.1852C124.039 35.2531 124.004 35.287 123.969 35.321ZM123.969 35.321C123.969 35.4228 123.899 35.5246 123.793 35.4228C123.828 35.3549 123.934 35.3549 123.969 35.321ZM125.235 35.3549C125.235 35.4228 125.13 35.3889 125.059 35.3889C125.094 35.287 125.2 35.287 125.235 35.3549ZM124.778 35.4907C124.883 35.321 124.848 35.6265 124.778 35.4907ZM123.758 35.5925C123.758 35.5586 123.828 35.5586 123.864 35.5586C123.828 35.5925 123.793 35.5925 123.758 35.5925ZM123.688 35.7283C123.793 35.5586 123.723 35.864 123.688 35.7283ZM123.512 35.9998C123.547 35.8301 123.477 36.2374 123.512 35.9998ZM123.301 36.3732C123.301 36.3053 123.301 36.2374 123.371 36.2374V36.3392C123.371 36.3392 123.336 36.3392 123.336 36.3732H123.301ZM123.301 36.3732C123.231 36.6107 123.09 36.8144 122.914 36.9501C123.02 36.7126 123.125 36.5089 123.301 36.3732ZM123.969 36.9162C124.004 36.9162 123.969 36.8823 123.969 36.9162ZM122.844 37.018C122.949 36.8483 122.879 37.1538 122.844 37.018ZM124.215 37.052C124.286 37.052 124.215 37.018 124.215 37.052ZM122.738 37.2217C122.738 37.1877 122.774 37.1199 122.844 37.1538V37.2217H122.738ZM122.738 37.2217C122.738 37.2896 122.703 37.2556 122.738 37.2217ZM122.633 37.3235C122.809 37.3235 122.633 37.5611 122.527 37.5611C122.563 37.4593 122.633 37.4253 122.633 37.3235ZM122.387 37.8326C122.457 37.8666 122.352 38.0023 122.316 38.0702C122.211 38.0363 122.352 37.8666 122.387 37.8326ZM123.442 38.206C123.477 38.1041 123.653 38.206 123.582 38.3417C123.442 38.3757 123.547 38.206 123.442 38.206ZM122.105 38.2399C122.176 38.2399 122.211 38.2738 122.211 38.3417C122.176 38.3078 122.176 38.3417 122.176 38.3757C122.105 38.3757 122.141 38.3078 122.105 38.2399ZM123.336 38.3417C123.371 38.3417 123.336 38.3078 123.336 38.3417ZM123.442 38.4096C123.477 38.5793 123.477 38.2399 123.442 38.4096ZM122.035 38.4096C122.105 38.4775 122.035 38.749 121.894 38.749C121.789 38.6133 122.07 38.6133 122.035 38.4096ZM123.055 38.4436C123.09 38.4775 123.02 38.4436 123.055 38.4436ZM123.266 38.749C123.301 38.8848 123.301 38.5793 123.266 38.749ZM121.824 38.8169C121.93 38.9866 121.894 38.6811 121.824 38.8169ZM122.176 38.9527C122.211 39.0884 122.211 38.783 122.176 38.9527ZM123.969 38.9527C124.039 38.9187 123.969 38.8848 123.969 38.9527ZM121.859 38.9527C121.789 39.0545 121.719 39.1903 121.648 39.36C121.508 39.2921 121.683 38.9527 121.859 38.9527ZM123.969 38.9527C124.004 39.1224 123.864 38.9527 123.969 38.9527ZM121.543 39.4278C121.578 39.5975 121.578 39.2581 121.543 39.4278ZM121.367 39.7672C121.437 39.8691 121.261 40.0727 121.226 40.2085C121.051 40.1067 121.332 39.903 121.367 39.7672ZM122.211 39.8691C122.352 39.7672 122.105 40.0048 122.211 39.8691ZM122 40.1745C122.141 40.1067 122.07 40.2764 122.035 40.3103C121.894 40.2764 122 40.2764 122 40.1745ZM121.015 40.48C121.015 40.3442 121.086 40.3103 121.121 40.2424C121.191 40.2764 121.121 40.5139 121.015 40.48ZM121.226 40.2424C121.297 40.2424 121.297 40.2764 121.332 40.3103C121.261 40.3103 121.261 40.3442 121.261 40.3782C121.226 40.3442 121.226 40.2764 121.226 40.2424ZM121.472 40.3782H121.437H121.367V40.2424H121.472V40.3782ZM121.015 40.48C121.015 40.5479 121.051 40.6837 120.945 40.6497C120.98 40.6158 120.945 40.48 121.015 40.48ZM123.055 40.6497C123.02 40.7176 122.985 40.7515 122.879 40.7176C122.879 40.6497 122.949 40.6497 123.055 40.6497ZM120.91 40.7855C120.91 40.6158 120.875 41.0231 120.91 40.7855ZM121.789 41.0231C121.754 41.0231 121.683 41.0231 121.683 41.057C121.613 40.9891 121.719 40.9552 121.648 40.8534C121.789 40.8194 121.719 40.9891 121.789 41.0231ZM120.84 40.9891C120.84 41.0231 120.804 41.0909 120.769 41.1249C120.664 41.1249 120.769 40.9552 120.84 40.9891ZM122.633 41.2607C122.633 41.2267 122.668 41.2267 122.668 41.2607H122.633ZM121.543 41.2946H121.613V41.3964H121.543V41.2946ZM122.492 41.5322C122.598 41.6001 122.633 41.634 122.598 41.7358C122.527 41.7019 122.527 41.6001 122.492 41.5322ZM120.593 41.634C120.488 41.7358 120.523 41.7698 120.488 41.9055C120.382 41.8376 120.418 41.5661 120.593 41.634ZM122.246 42.2789C122.246 42.211 122.211 42.1771 122.211 42.1092H122.387C122.422 42.0074 122.281 41.9055 122.387 41.9055C122.527 41.9395 122.387 42.3128 122.246 42.2789ZM121.191 42.0752C121.226 42.1092 121.156 42.0413 121.191 42.0752ZM120.382 42.1092C120.558 42.1431 120.347 42.3468 120.382 42.1092ZM129.455 42.1092H129.56V42.211H129.455V42.1092ZM121.121 42.3128C121.121 42.3468 121.086 42.3128 121.121 42.3128ZM120.312 42.3468C120.453 42.2449 120.207 42.4825 120.312 42.3468ZM120.418 42.4146C120.629 42.4486 120.382 42.4825 120.418 42.6522C120.312 42.6183 120.453 42.4825 120.418 42.4146ZM120.945 42.6862C121.051 42.6862 120.945 42.8219 120.945 42.8559C120.84 42.8559 120.91 42.7201 120.945 42.6862ZM120.101 42.8219C120.277 42.788 120.066 42.9238 120.136 43.0595C119.996 43.0256 120.066 42.8898 120.101 42.8219ZM120.312 42.8559C120.347 42.9916 120.347 42.6862 120.312 42.8559ZM119.96 42.8898C119.996 42.9238 119.96 42.8559 119.96 42.8898ZM119.749 43.2971C119.89 43.2292 119.89 43.4668 119.749 43.4329V43.2971ZM120.629 43.365C120.629 43.3311 120.699 43.3311 120.734 43.3311C120.734 43.365 120.664 43.365 120.629 43.365ZM121.683 43.5347C121.789 43.6365 121.719 43.7044 121.683 43.7723C121.613 43.7723 121.648 43.5686 121.683 43.5347ZM119.785 43.6365C119.925 43.5347 119.679 43.7723 119.785 43.6365ZM121.578 43.908C121.683 43.7383 121.613 44.0438 121.578 43.908ZM119.89 43.9759C119.925 43.9759 119.89 43.942 119.89 43.9759ZM121.543 44.0778C121.648 44.0778 121.472 43.908 121.543 44.0778ZM119.679 44.0778C119.714 44.1117 119.644 44.0438 119.679 44.0778ZM120.382 44.0778C120.418 44.2135 120.277 44.1456 120.277 44.2475C120.136 44.1796 120.277 44.0438 120.382 44.0778ZM121.543 44.0778C121.543 44.1117 121.472 44.0778 121.543 44.0778ZM119.679 44.2814C119.609 44.2814 119.609 44.3153 119.574 44.3493C119.468 44.3153 119.644 44.2475 119.574 44.1456C119.644 44.1796 119.679 44.2135 119.679 44.2814ZM121.402 44.3153V44.1456C121.508 44.1796 121.472 44.2814 121.402 44.3153ZM121.402 44.3153C121.402 44.3832 121.402 44.4511 121.367 44.485C121.261 44.485 121.332 44.3493 121.367 44.3153H121.402ZM130.756 44.485C130.791 44.3153 130.721 44.7226 130.756 44.485ZM120.101 44.5529C120.171 44.5529 120.171 44.6208 120.171 44.7226C120.066 44.7566 120.101 44.6208 120.101 44.5529ZM119.714 44.7226C119.574 44.7566 119.503 44.6887 119.433 44.6547C119.503 44.6208 119.644 44.6208 119.714 44.7226ZM121.261 44.6547C121.367 44.8245 121.121 45.096 121.051 45.2996C121.015 45.1299 121.191 44.8245 121.261 44.6547ZM119.714 44.7226H119.785C119.785 44.8584 119.679 44.8923 119.679 45.062C119.574 44.9942 119.644 44.7566 119.714 44.7226ZM119.257 44.9263C119.257 44.8584 119.257 44.7905 119.292 44.7566C119.398 44.7566 119.292 44.9263 119.257 44.9263ZM119.468 44.8584C119.644 44.8584 119.503 45.1639 119.574 45.2657C119.327 45.2657 119.433 45.673 119.222 45.7409C119.222 45.4693 119.468 45.2317 119.468 44.8584ZM119.327 44.9263C119.433 44.7905 119.327 45.2317 119.327 44.9263ZM119.257 44.9263C119.257 44.9942 119.257 45.062 119.152 45.062C119.187 44.9942 119.222 44.9602 119.257 44.9263ZM119.116 45.1299C119.187 45.2317 119.116 45.5372 119.011 45.5712C119.046 45.4354 119.046 45.2657 119.116 45.1299ZM119.257 45.1639C119.292 45.3336 119.292 44.9942 119.257 45.1639ZM120.98 45.3675C121.051 45.3675 121.051 45.5712 120.945 45.5033V45.4014C120.98 45.4354 120.98 45.4014 120.98 45.3675ZM119.081 45.7069C119.116 45.7409 119.046 45.673 119.081 45.7069ZM120.84 45.7748C120.84 45.7409 120.84 45.7409 120.804 45.7409C120.804 45.7069 120.84 45.7069 120.84 45.673H120.945C120.945 45.673 120.945 45.7069 120.98 45.7069C120.98 45.7409 120.945 45.7409 120.945 45.7748H120.84ZM120.84 45.7748C120.875 45.9445 120.84 46.0463 120.769 46.1142C120.699 46.0463 120.84 45.8766 120.84 45.7748ZM119.011 46.0124C119.011 46.0463 118.976 46.0124 119.011 46.0124ZM120.312 46.216C120.242 46.25 120.207 46.2839 120.207 46.1821C120.242 46.1821 120.312 46.1821 120.312 46.216ZM118.87 46.4876C118.905 46.3179 118.73 46.4536 118.87 46.4876ZM119.96 46.6233C119.96 46.5894 120.031 46.5894 120.066 46.5894C120.031 46.6233 119.996 46.6233 119.96 46.6233ZM119.081 46.6233C119.292 46.5894 119.011 46.793 119.152 46.793C119.081 46.9288 119.046 46.7251 119.081 46.6233ZM129.209 47.404C129.384 47.2003 129.455 46.8949 129.666 46.7251C129.701 46.9288 129.42 47.2003 129.42 47.5397C129.349 47.5737 129.279 47.6076 129.173 47.6076C129.173 47.5397 129.279 47.4718 129.209 47.404ZM119.925 46.827C119.925 46.793 119.96 46.793 119.996 46.793C119.996 46.827 119.96 46.827 119.925 46.827ZM119.925 47.0985C119.96 47.2003 119.855 47.1664 119.855 47.2343C119.749 47.2343 119.82 47.0646 119.925 47.0985ZM120.312 47.37C120.418 47.37 120.277 47.2003 120.312 47.37ZM120.312 47.37C120.347 47.4718 120.242 47.4718 120.277 47.5737H120.207C120.242 47.5058 120.171 47.3361 120.312 47.37ZM118.87 47.4379C118.905 47.4718 118.835 47.4379 118.87 47.4379ZM129.349 47.7094C129.279 47.7434 129.314 47.8452 129.209 47.8113C129.209 47.7434 129.244 47.6755 129.349 47.7094ZM118.308 47.8113C118.448 47.8452 118.308 47.981 118.308 48.0488C118.237 48.0488 118.273 47.8452 118.308 47.8113ZM129.068 48.2185C129.068 48.0828 129.103 47.947 129.173 47.9131C129.244 47.981 129.173 48.1846 129.068 48.2185ZM119.363 48.0488C119.468 48.0828 119.398 48.1846 119.363 48.2185C119.257 48.2185 119.363 48.0828 119.363 48.0488ZM119.292 48.3204C119.398 48.2864 119.292 48.4561 119.327 48.524C119.187 48.4561 119.327 48.4222 119.292 48.3204ZM119.152 48.524C119.222 48.558 119.327 48.558 119.292 48.6598C119.187 48.6937 119.152 48.6258 119.152 48.524ZM118.519 48.7955C118.554 48.6258 118.484 49.0331 118.519 48.7955ZM119.152 48.9313H119.257V48.9992H119.152V48.9313ZM119.116 49.0671C119.187 49.0671 119.187 49.2707 119.081 49.2028V49.135C119.116 49.135 119.116 49.101 119.116 49.0671ZM119.116 49.4744C118.976 49.5083 119.046 49.3386 119.116 49.3725V49.4744ZM118.905 49.8138C118.941 49.712 119.081 49.8477 119.046 49.9495C118.941 49.9495 118.976 49.8138 118.905 49.8138ZM118.941 50.0514C119.046 49.8817 119.011 50.1871 118.941 50.0514ZM118.694 50.4587C118.8 50.4247 118.835 50.4926 118.835 50.5944C118.765 50.5605 118.73 50.5265 118.694 50.4587ZM128.154 51.2732C128.189 51.3072 128.119 51.2732 128.154 51.2732ZM127.908 51.7823C127.943 51.7823 127.872 51.7484 127.908 51.7823ZM128.013 51.8502C128.048 51.6805 127.978 52.0878 128.013 51.8502ZM127.169 51.9181C127.275 51.7145 127.099 52.1218 127.169 51.9181ZM127.134 52.0878C127.204 52.1218 127.239 52.1557 127.239 52.2236C127.169 52.1896 127.134 52.1557 127.134 52.0878ZM127.169 52.3254C127.204 52.4272 127.134 52.4612 127.134 52.4951C127.028 52.4951 127.028 52.2915 127.169 52.3254ZM126.536 53.4115C126.677 53.3776 126.501 53.2418 126.536 53.4115ZM126.536 53.4115C126.501 53.5812 126.677 53.683 126.466 53.717C126.501 53.5473 126.395 53.4794 126.536 53.4115ZM126.606 53.7509C126.712 53.8188 126.536 53.9546 126.431 53.9206C126.36 53.7849 126.571 53.8527 126.606 53.7509ZM126.466 55.2783C126.571 55.3122 126.431 55.448 126.325 55.448C126.29 55.3122 126.431 55.3462 126.466 55.2783ZM126.466 55.7195C126.36 55.7195 126.36 55.6856 126.29 55.6856C126.29 55.5498 126.501 55.5837 126.466 55.7195ZM126.395 56.3644C126.395 56.3983 126.36 56.3644 126.395 56.3644ZM127.345 57.3147C127.38 57.3487 127.345 57.2808 127.345 57.3147ZM128.294 59.1475C128.33 59.2833 128.33 58.9778 128.294 59.1475ZM142.158 46.4876C142.193 46.4876 142.193 46.4536 142.193 46.4536C142.158 46.3857 142.158 46.4536 142.158 46.4876C142.017 46.5894 141.736 46.6573 141.771 46.793C141.63 46.9627 141.419 46.9627 141.208 47.0985C139.767 47.981 137.938 50.8999 135.899 50.1192C135.828 49.8817 135.688 49.712 135.617 49.5083C135.617 49.3386 135.477 49.5762 135.477 49.4404C135.371 49.2707 135.301 49.101 135.195 48.9313C135.688 46.5554 137.024 44.9942 138.325 43.3311C138.817 42.9577 139.415 42.5165 140.224 42.5165C140.997 42.6862 141.912 42.9238 142.052 43.8402C142.123 44.3493 141.912 44.6887 141.701 45.0281C141.982 45.0281 142.299 44.7566 142.756 44.8245C143.389 45.062 143.494 46.3179 143.037 46.7591C143.353 47.2682 142.72 48.0149 142.967 48.5919C146.483 48.0488 148.452 45.639 150.597 43.6365C150.351 45.4354 148.452 46.3518 147.222 47.5737C146.413 48.0149 145.815 48.4222 144.936 48.7955C145.006 48.8974 145.147 48.6937 145.287 48.7277C145.252 48.8295 145.112 48.7955 145.112 48.8974C146.553 48.4222 147.468 47.2682 148.698 46.7251C148.663 46.6233 148.558 46.7591 148.487 46.7251C148.558 46.6233 148.663 46.4197 148.734 46.6573C148.839 46.4197 149.226 46.0124 149.718 45.9106C148.206 47.6755 146.272 48.8634 143.951 49.9156C143.635 49.9495 143.389 49.8477 143.072 49.8477C142.545 49.678 142.369 49.4065 142.123 48.9653C142.088 48.2864 142.052 47.2343 142.158 46.4876ZM136.567 48.8295C138.36 47.981 139.485 46.5554 140.927 45.3675C140.646 45.1299 140.822 44.3153 140.751 44.0099C138.43 44.7226 137.587 46.8609 136.567 48.8295ZM150.175 44.4172C150.281 44.2475 150.21 44.5529 150.175 44.4172ZM149.964 44.6547C150.035 44.7226 150.105 44.6208 150.14 44.519C150.035 44.5529 149.929 44.5529 149.964 44.6547ZM145.709 47.8791C145.674 47.8113 145.604 47.8113 145.604 47.8791C145.498 47.8452 145.463 47.9131 145.428 47.981C145.534 47.981 145.569 47.9131 145.604 47.8791H145.709C145.639 48.0149 145.463 48.0488 145.323 48.1167C145.323 48.0488 145.498 47.981 145.323 47.981C145.252 48.1167 145.182 48.3204 144.971 48.1507C144.936 48.2525 144.83 48.4222 144.971 48.4222C146.87 47.4718 148.698 46.216 149.929 44.6887C148.558 45.8087 147.292 46.9967 145.709 47.8791ZM141.56 45.5712C141.806 45.639 141.419 45.7748 141.56 45.5712ZM141.279 45.8427C141.314 45.9106 141.56 45.7748 141.419 45.7069C141.419 45.8087 141.244 45.7069 141.279 45.8427ZM141.068 46.0463C140.962 46.0124 140.892 46.1821 140.962 46.1821C140.962 46.1142 141.068 46.1482 141.068 46.0463C141.103 46.0463 141.103 46.0803 141.138 46.0803C141.173 46.0463 141.173 46.0124 141.173 45.9445C141.103 45.9445 141.068 45.9784 141.068 46.0463ZM141.279 46.1482C141.279 46.1821 141.244 46.1482 141.279 46.1482ZM140.259 46.6912C140.4 46.5894 140.153 46.827 140.259 46.6912ZM141.56 46.793C141.771 46.8609 141.595 46.6912 141.56 46.793ZM141.384 46.9288C141.56 46.9627 141.384 46.793 141.384 46.9288ZM145.147 48.1507C145.182 48.1846 145.112 48.1507 145.147 48.1507ZM136.321 48.2185C136.496 48.2864 136.321 48.1167 136.321 48.2185ZM136.285 48.4222C136.215 48.524 136.039 48.7277 136.11 48.7955C136.18 48.6937 136.285 48.6258 136.285 48.4222C136.356 48.4222 136.285 48.3883 136.285 48.4222ZM144.655 48.9653C144.725 48.9313 144.866 48.9313 144.901 48.8295C144.76 48.8295 144.619 48.8295 144.655 48.9653ZM136.074 48.9313C136.215 48.8295 135.969 49.0671 136.074 48.9313ZM144.725 49.101C144.866 49.0331 145.041 49.0331 145.076 48.8974C144.936 48.9313 144.795 48.9653 144.725 49.101ZM136.074 49.101C136.145 48.9653 135.899 48.9653 135.899 49.0331C135.969 49.0331 136.004 49.101 136.074 49.101ZM149.999 45.3675C150.105 45.4354 149.964 45.5712 149.859 45.5372C149.894 45.4693 149.999 45.4693 149.999 45.3675ZM149.929 45.673C149.964 45.8087 149.683 45.8766 149.718 45.7069C149.789 45.7409 149.789 45.639 149.929 45.673ZM149.507 45.7409C149.542 45.9106 149.542 45.6051 149.507 45.7409ZM145.569 48.5919C145.569 48.6937 145.428 48.6598 145.428 48.7277C145.323 48.6937 145.498 48.5919 145.569 48.5919ZM165.903 44.8584C165.903 44.9602 165.797 44.9602 165.797 45.0281C165.832 45.0281 165.867 45.062 165.903 45.062C166.078 44.8584 166.254 44.7905 166.641 44.6887C166.395 45.3675 165.938 46.0124 165.481 46.4536C164.285 47.2682 163.054 48.558 161.437 48.9653C159.749 49.2707 159.01 48.0488 158.694 46.5215C156.9 47.7434 155.74 49.5083 153.454 50.255C151.731 50.3229 151.415 48.1846 151.731 46.7251C152.188 45.4354 152.681 43.908 153.103 42.6522C153.279 42.5504 153.384 42.3807 153.56 42.2449C153.841 42.4486 154.123 42.6183 154.298 42.8559C154.017 45.2996 152.821 46.6912 152.575 48.8295C152.575 48.9313 152.751 48.8634 152.786 48.9313C155.072 47.981 156.865 46.0124 158.694 44.6208C158.835 44.5869 158.659 44.519 158.694 44.4511C159.186 44.6547 159.432 45.062 159.96 45.4014C159.819 46.0124 159.819 46.6573 159.854 47.4718C161.577 48.0149 162.878 46.25 164.215 45.639C164.426 45.3675 164.777 45.2317 164.953 44.8923C165.059 44.8584 165.059 44.9602 165.164 44.9602C165.375 44.519 166.008 44.1796 166.43 43.8062C166.184 43.7723 166.184 43.9759 165.973 43.9759C166.149 43.6026 166.5 43.4329 166.746 43.1613C166.887 43.2632 166.676 43.4668 166.641 43.5686C166.676 43.6705 166.746 43.5008 166.852 43.5686C166.746 43.8402 166.817 44.0438 166.535 44.0778C166.5 44.2135 166.676 44.1117 166.641 44.2475C166.535 44.2814 166.5 44.3153 166.465 44.4172C166.36 44.4172 166.36 44.3153 166.43 44.2475C166.254 44.3153 166.114 44.4172 166.043 44.5869C166.184 44.6887 166.254 44.485 166.395 44.485C166.395 44.6887 166.149 44.6208 166.114 44.7905C166.008 44.8245 166.043 44.6887 166.008 44.6547C165.938 44.6887 165.867 44.7566 165.832 44.8245C165.832 44.8584 165.867 44.8584 165.903 44.8584ZM166.5 43.7723H166.606V43.6705H166.5V43.7723ZM165.656 44.9942C165.762 45.0281 165.867 44.8923 165.762 44.8584C165.727 44.9263 165.621 44.8923 165.656 44.9942ZM165.481 45.096H165.621V44.9942H165.481V45.096ZM165.762 45.2657C165.797 45.1978 165.797 45.096 165.656 45.096C165.656 45.1978 165.656 45.2657 165.762 45.2657ZM165.199 45.4014C165.41 45.4014 165.305 45.1978 165.199 45.1978V45.4014ZM165.234 45.5033C165.445 45.5033 165.445 45.2996 165.621 45.4693C165.692 45.4014 165.621 45.2317 165.551 45.1978C165.445 45.3336 165.305 45.3675 165.234 45.5033ZM164.953 45.7748C164.988 45.639 165.164 45.639 165.199 45.5033C165.059 45.5372 164.848 45.673 164.953 45.7748ZM157.991 45.8427C157.991 45.7748 158.026 45.7409 158.026 45.673C157.85 45.7069 157.815 45.8427 157.744 45.9784C157.358 45.9445 157.041 46.3518 156.725 46.4876C156.76 46.6233 156.76 46.6912 156.689 46.793C156.795 46.8949 156.795 46.6573 156.936 46.6912C156.936 46.793 156.689 46.8609 156.795 46.9288C156.936 46.827 157.076 46.7251 157.252 46.6573C157.147 46.4197 157.393 46.25 157.463 46.0803C157.569 46.1821 157.674 46.0463 157.744 45.9784C157.885 45.9784 157.815 45.8087 157.991 45.8427C157.991 45.9784 157.991 46.1142 157.85 46.0803C157.85 46.0463 157.885 46.0463 157.885 46.0124C157.709 46.0463 157.709 46.2839 157.533 46.3179C157.604 46.3518 157.674 46.3857 157.78 46.4197C157.85 46.3179 157.709 46.1821 157.85 46.1142C158.096 46.25 158.202 45.7748 158.448 45.9106C158.448 45.8427 158.483 45.8427 158.483 45.8087C158.307 45.8087 158.588 45.673 158.413 45.6051C158.377 45.7409 158.272 45.8087 158.096 45.7069C158.131 45.8087 158.061 45.8427 157.991 45.8427ZM158.659 45.7748C158.659 45.673 158.588 45.639 158.518 45.6051C158.518 45.7069 158.553 45.7748 158.659 45.7748ZM164.777 45.7069C164.812 45.7409 164.742 45.7069 164.777 45.7069ZM157.639 45.8087C157.674 45.8427 157.639 45.7748 157.639 45.8087ZM164.812 45.8087C164.883 45.9784 164.883 45.639 164.812 45.8087ZM164.074 46.0803C164.039 46.1821 164.144 46.1821 164.144 46.25C164.32 46.1821 164.496 46.1482 164.531 45.9106C164.25 45.8766 164.25 46.1821 164.074 46.0803ZM164.144 46.3857C164.285 46.4876 164.215 46.216 164.144 46.3857ZM157.358 46.4197C157.498 46.3179 157.252 46.5554 157.358 46.4197ZM157.322 46.5894C157.428 46.6912 157.393 46.4197 157.322 46.5894ZM156.408 47.2682C156.373 47.0646 156.549 46.8949 156.619 47.0646C156.9 46.6573 155.986 47.0985 156.408 47.2682ZM155.635 47.7434C155.74 47.6416 155.81 47.5058 156.057 47.5058C155.986 47.3361 156.197 47.37 156.162 47.2343C155.951 47.3361 155.599 47.5397 155.635 47.7434ZM155.283 47.8791V47.947H155.353C155.353 47.947 155.388 47.9131 155.424 47.9131V47.8452H155.318C155.318 47.8452 155.318 47.8791 155.283 47.8791ZM165.023 44.8245C165.059 44.8584 165.023 44.7905 165.023 44.8245ZM165.903 44.8584C165.973 44.8245 165.903 44.8245 165.903 44.8584ZM157.111 46.5215C157.252 46.4197 157.006 46.6573 157.111 46.5215ZM177.516 42.5504C177.375 42.4486 177.199 42.3468 177.023 42.2789C175.898 42.7201 175.124 43.6705 174.14 44.0438C174.069 44.3493 173.929 44.5869 173.647 44.6547C172.593 46.0803 171.538 47.4718 170.694 49.0671C170.588 49.8477 170.201 50.3229 169.533 50.5605C167.775 49.7798 168.795 47.0985 168.971 45.5712C169.322 44.7905 169.357 43.6026 169.744 42.9916C171.291 43.331 170.659 44.9263 170.483 46.0124C171.291 44.8245 172.311 43.8402 173.331 42.8219C174.28 42.0413 176.672 40.9552 177.516 42.5504ZM174.913 42.3128C175.16 42.3468 175.16 42.1431 175.335 42.211C175.23 41.9734 175.617 42.1771 175.652 41.9395C175.406 42.0074 175.195 42.0413 175.089 42.0074C173.155 43.0935 171.608 44.8584 170.553 46.7591C171.784 45.062 173.12 43.4668 174.913 42.3128ZM175.757 41.9734C175.792 42.0074 175.722 41.9734 175.757 41.9734ZM175.933 42.2789C175.933 42.3468 175.898 42.3807 175.863 42.4146C176.003 42.3807 176.179 42.3807 176.214 42.211C176.109 42.2449 176.039 42.2789 175.933 42.2789ZM175.581 42.5843C175.722 42.5843 175.757 42.4825 175.828 42.4146C175.687 42.3468 175.476 42.4146 175.581 42.5843ZM174.597 43.0935C174.913 43.0595 175.124 42.6862 175.406 42.6862C175.371 42.5843 175.546 42.4486 175.371 42.4825C175.16 42.7201 174.808 42.8559 174.597 43.0935ZM175.089 42.9577C175.23 42.8559 174.984 43.0935 175.089 42.9577ZM174.316 43.365C174.421 43.2971 174.562 43.2632 174.597 43.1274C174.491 43.1953 174.21 43.2292 174.316 43.365ZM173.858 43.942C173.929 43.8062 174.14 43.7723 174.14 43.5686H174.034C174.069 43.7723 173.718 43.8062 173.858 43.942ZM173.507 44.2135C173.507 44.2135 173.507 44.1796 173.542 44.1796C173.542 44.1456 173.542 44.0778 173.472 44.1117C173.472 44.1456 173.472 44.2135 173.507 44.2135ZM174.913 42.3128C174.878 42.3128 174.843 42.2789 174.913 42.2789V42.3128ZM173.683 43.0256C173.718 43.0595 173.647 43.0256 173.683 43.0256ZM168.76 43.942C168.935 43.9759 168.76 43.8062 168.76 43.942Z" fill="#111111"/>
</svg>
